<?xml version="1.0" encoding="UTF-8"?>
        <svg xmlns="http://www.w3.org/2000/svg" xmlns:xlink="http://www.w3.org/1999/xlink"
             width="340" height="340" viewBox="0 -3400 3400 3400">

<defs>

</defs>

<rect fill="#84A1AE" height="70" rx="15" width="70" x="15" y="-85" />
<rect fill="#84A1AE" height="70" rx="15" width="70" x="15" y="-185" />
<rect fill="#84A1AE" height="70" rx="15" width="70" x="15" y="-285" />
<rect fill="#84A1AE" height="70" rx="15" width="70" x="15" y="-385" />
<rect fill="#84A1AE" height="70" rx="15" width="70" x="15" y="-485" />
<rect fill="#84A1AE" height="70" rx="15" width="70" x="15" y="-585" />
<rect fill="#84A1AE" height="70" rx="15" width="70" x="15" y="-685" />
<rect fill="#84A1AE" height="70" rx="15" width="70" x="15" y="-785" />
<rect fill="#84A1AE" height="70" rx="15" width="70" x="15" y="-885" />
<rect fill="#84A1AE" height="70" rx="15" width="70" x="15" y="-985" />
<rect fill="#84A1AE" height="70" rx="15" width="70" x="15" y="-1085" />
<rect fill="#84A1AE" height="70" rx="15" width="70" x="15" y="-1185" />
<rect fill="#84A1AE" height="70" rx="15" width="70" x="15" y="-1285" />
<rect fill="#84A1AE" height="70" rx="15" width="70" x="15" y="-1385" />
<rect fill="#84A1AE" height="70" rx="15" width="70" x="15" y="-1485" />
<rect fill="#84A1AE" height="70" rx="15" width="70" x="15" y="-1585" />
<rect fill="#84A1AE" height="70" rx="15" width="70" x="15" y="-1685" />
<rect fill="#84A1AE" height="70" rx="15" width="70" x="15" y="-1785" />
<rect fill="#84A1AE" height="70" rx="15" width="70" x="15" y="-1885" />
<rect fill="#84A1AE" height="70" rx="15" width="70" x="15" y="-1985" />
<rect fill="#84A1AE" height="70" rx="15" width="70" x="15" y="-2085" />
<rect fill="#84A1AE" height="70" rx="15" width="70" x="15" y="-2185" />
<rect fill="#84A1AE" height="70" rx="15" width="70" x="15" y="-2285" />
<rect fill="#84A1AE" height="70" rx="15" width="70" x="15" y="-2385" />
<rect fill="#84A1AE" height="70" rx="15" width="70" x="15" y="-2485" />
<rect fill="#84A1AE" height="70" rx="15" width="70" x="15" y="-2585" />
<rect fill="#84A1AE" height="70" rx="15" width="70" x="15" y="-2685" />
<rect fill="#84A1AE" height="70" rx="15" width="70" x="15" y="-2785" />
<rect fill="#84A1AE" height="70" rx="15" width="70" x="15" y="-2885" />
<rect fill="#84A1AE" height="70" rx="15" width="70" x="15" y="-2985" />
<rect fill="#84A1AE" height="70" rx="15" width="70" x="15" y="-3085" />
<rect fill="#84A1AE" height="70" rx="15" width="70" x="15" y="-3185" />
<rect fill="#84A1AE" height="70" rx="15" width="70" x="15" y="-3285" />
<rect fill="#84A1AE" height="70" rx="15" width="70" x="15" y="-3385" />
<rect fill="#84A1AE" height="70" rx="15" width="70" x="115" y="-85" />
<rect fill="#84A1AE" height="70" rx="15" width="70" x="115" y="-1785" />
<rect fill="#84A1AE" height="70" rx="15" width="70" x="115" y="-1885" />
<rect fill="#84A1AE" height="70" rx="15" width="70" x="115" y="-1985" />
<rect fill="#84A1AE" height="70" rx="15" width="70" x="115" y="-3085" />
<rect fill="#84A1AE" height="70" rx="15" width="70" x="115" y="-3385" />
<rect fill="#84A1AE" height="70" rx="15" width="70" x="215" y="-85" />
<rect fill="#84A1AE" height="70" rx="15" width="70" x="215" y="-485" />
<rect fill="#84A1AE" height="70" rx="15" width="70" x="215" y="-685" />
<rect fill="#84A1AE" height="70" rx="15" width="70" x="215" y="-885" />
<rect fill="#84A1AE" height="70" rx="15" width="70" x="215" y="-1285" />
<rect fill="#84A1AE" height="70" rx="15" width="70" x="215" y="-2785" />
<rect fill="#84A1AE" height="70" rx="15" width="70" x="215" y="-3285" />
<rect fill="#84A1AE" height="70" rx="15" width="70" x="215" y="-3385" />
<rect fill="#84A1AE" height="70" rx="15" width="70" x="315" y="-85" />
<rect fill="#84A1AE" height="70" rx="15" width="70" x="315" y="-385" />
<rect fill="#84A1AE" height="70" rx="15" width="70" x="315" y="-1985" />
<rect fill="#84A1AE" height="70" rx="15" width="70" x="315" y="-2285" />
<rect fill="#84A1AE" height="70" rx="15" width="70" x="315" y="-3385" />
<rect fill="#84A1AE" height="70" rx="15" width="70" x="415" y="-85" />
<rect fill="#84A1AE" height="70" rx="15" width="70" x="415" y="-385" />
<rect fill="#84A1AE" height="70" rx="15" width="70" x="415" y="-585" />
<rect fill="#84A1AE" height="70" rx="15" width="70" x="415" y="-685" />
<rect fill="#84A1AE" height="70" rx="15" width="70" x="415" y="-785" />
<rect fill="#84A1AE" height="70" rx="15" width="70" x="415" y="-885" />
<rect fill="#84A1AE" height="70" rx="15" width="70" x="415" y="-1085" />
<rect fill="#84A1AE" height="70" rx="15" width="70" x="415" y="-1385" />
<rect fill="#84A1AE" height="70" rx="15" width="70" x="415" y="-1885" />
<rect fill="#84A1AE" height="70" rx="15" width="70" x="415" y="-3185" />
<rect fill="#84A1AE" height="70" rx="15" width="70" x="415" y="-3285" />
<rect fill="#84A1AE" height="70" rx="15" width="70" x="415" y="-3385" />
<rect fill="#84A1AE" height="70" rx="15" width="70" x="515" y="-85" />
<rect fill="#84A1AE" height="70" rx="15" width="70" x="515" y="-185" />
<rect fill="#84A1AE" height="70" rx="15" width="70" x="515" y="-285" />
<rect fill="#84A1AE" height="70" rx="15" width="70" x="515" y="-385" />
<rect fill="#84A1AE" height="70" rx="15" width="70" x="515" y="-585" />
<rect fill="#84A1AE" height="70" rx="15" width="70" x="515" y="-885" />
<rect fill="#84A1AE" height="70" rx="15" width="70" x="515" y="-1385" />
<rect fill="#84A1AE" height="70" rx="15" width="70" x="515" y="-1685" />
<rect fill="#84A1AE" height="70" rx="15" width="70" x="515" y="-2885" />
<rect fill="#84A1AE" height="70" rx="15" width="70" x="515" y="-3085" />
<rect fill="#84A1AE" height="70" rx="15" width="70" x="515" y="-3385" />
<rect fill="#84A1AE" height="70" rx="15" width="70" x="615" y="-85" />
<rect fill="#84A1AE" height="70" rx="15" width="70" x="615" y="-385" />
<rect fill="#84A1AE" height="70" rx="15" width="70" x="615" y="-1385" />
<rect fill="#84A1AE" height="70" rx="15" width="70" x="615" y="-2385" />
<rect fill="#84A1AE" height="70" rx="15" width="70" x="615" y="-2485" />
<rect fill="#84A1AE" height="70" rx="15" width="70" x="615" y="-3085" />
<rect fill="#84A1AE" height="70" rx="15" width="70" x="615" y="-3385" />
<rect fill="#84A1AE" height="70" rx="15" width="70" x="715" y="-85" />
<rect fill="#84A1AE" height="70" rx="15" width="70" x="715" y="-185" />
<rect fill="#84A1AE" height="70" rx="15" width="70" x="715" y="-785" />
<rect fill="#84A1AE" height="70" rx="15" width="70" x="715" y="-1385" />
<rect fill="#84A1AE" height="70" rx="15" width="70" x="715" y="-1485" />
<rect fill="#84A1AE" height="70" rx="15" width="70" x="715" y="-1585" />
<rect fill="#84A1AE" height="70" rx="15" width="70" x="715" y="-2985" />
<rect fill="#84A1AE" height="70" rx="15" width="70" x="715" y="-3285" />
<rect fill="#84A1AE" height="70" rx="15" width="70" x="715" y="-3385" />
<rect fill="#84A1AE" height="70" rx="15" width="70" x="815" y="-85" />
<rect fill="#84A1AE" height="70" rx="15" width="70" x="815" y="-185" />
<rect fill="#84A1AE" height="70" rx="15" width="70" x="815" y="-285" />
<rect fill="#84A1AE" height="70" rx="15" width="70" x="815" y="-485" />
<rect fill="#84A1AE" height="70" rx="15" width="70" x="815" y="-785" />
<rect fill="#84A1AE" height="70" rx="15" width="70" x="815" y="-1185" />
<rect fill="#84A1AE" height="70" rx="15" width="70" x="815" y="-1485" />
<rect fill="#84A1AE" height="70" rx="15" width="70" x="815" y="-2385" />
<rect fill="#84A1AE" height="70" rx="15" width="70" x="815" y="-2785" />
<rect fill="#84A1AE" height="70" rx="15" width="70" x="815" y="-3385" />
<rect fill="#84A1AE" height="70" rx="15" width="70" x="915" y="-85" />
<rect fill="#84A1AE" height="70" rx="15" width="70" x="915" y="-885" />
<rect fill="#84A1AE" height="70" rx="15" width="70" x="915" y="-1185" />
<rect fill="#84A1AE" height="70" rx="15" width="70" x="915" y="-2185" />
<rect fill="#84A1AE" height="70" rx="15" width="70" x="915" y="-2485" />
<rect fill="#84A1AE" height="70" rx="15" width="70" x="915" y="-2985" />
<rect fill="#84A1AE" height="70" rx="15" width="70" x="915" y="-3085" />
<rect fill="#84A1AE" height="70" rx="15" width="70" x="915" y="-3385" />
<rect fill="#84A1AE" height="70" rx="15" width="70" x="1015" y="-85" />
<rect fill="#84A1AE" height="70" rx="15" width="70" x="1015" y="-185" />
<rect fill="#84A1AE" height="70" rx="15" width="70" x="1015" y="-1185" />
<rect fill="#84A1AE" height="70" rx="15" width="70" x="1015" y="-1285" />
<rect fill="#84A1AE" height="70" rx="15" width="70" x="1015" y="-1485" />
<rect fill="#84A1AE" height="70" rx="15" width="70" x="1015" y="-1585" />
<rect fill="#84A1AE" height="70" rx="15" width="70" x="1015" y="-1685" />
<rect fill="#84A1AE" height="70" rx="15" width="70" x="1015" y="-1885" />
<rect fill="#84A1AE" height="70" rx="15" width="70" x="1015" y="-2085" />
<rect fill="#84A1AE" height="70" rx="15" width="70" x="1015" y="-2585" />
<rect fill="#84A1AE" height="70" rx="15" width="70" x="1015" y="-2785" />
<rect fill="#84A1AE" height="70" rx="15" width="70" x="1015" y="-2885" />
<rect fill="#84A1AE" height="70" rx="15" width="70" x="1015" y="-3185" />
<rect fill="#84A1AE" height="70" rx="15" width="70" x="1015" y="-3385" />
<rect fill="#84A1AE" height="70" rx="15" width="70" x="1115" y="-85" />
<rect fill="#84A1AE" height="70" rx="15" width="70" x="1115" y="-285" />
<rect fill="#84A1AE" height="70" rx="15" width="70" x="1115" y="-385" />
<rect fill="#84A1AE" height="70" rx="15" width="70" x="1115" y="-485" />
<rect fill="#84A1AE" height="70" rx="15" width="70" x="1115" y="-785" />
<rect fill="#84A1AE" height="70" rx="15" width="70" x="1115" y="-985" />
<rect fill="#84A1AE" height="70" rx="15" width="70" x="1115" y="-1285" />
<rect fill="#84A1AE" height="70" rx="15" width="70" x="1115" y="-2185" />
<rect fill="#84A1AE" height="70" rx="15" width="70" x="1115" y="-2585" />
<rect fill="#84A1AE" height="70" rx="15" width="70" x="1115" y="-3385" />
<rect fill="#84A1AE" height="70" rx="15" width="70" x="1215" y="-85" />
<rect fill="#84A1AE" height="70" rx="15" width="70" x="1215" y="-285" />
<rect fill="#84A1AE" height="70" rx="15" width="70" x="1215" y="-585" />
<rect fill="#84A1AE" height="70" rx="15" width="70" x="1215" y="-885" />
<rect fill="#84A1AE" height="70" rx="15" width="70" x="1215" y="-1485" />
<rect fill="#84A1AE" height="70" rx="15" width="70" x="1215" y="-1785" />
<rect fill="#84A1AE" height="70" rx="15" width="70" x="1215" y="-2185" />
<rect fill="#84A1AE" height="70" rx="15" width="70" x="1215" y="-2485" />
<rect fill="#84A1AE" height="70" rx="15" width="70" x="1215" y="-3385" />
<rect fill="#84A1AE" height="70" rx="15" width="70" x="1315" y="-85" />
<rect fill="#84A1AE" height="70" rx="15" width="70" x="1315" y="-485" />
<rect fill="#84A1AE" height="70" rx="15" width="70" x="1315" y="-785" />
<rect fill="#84A1AE" height="70" rx="15" width="70" x="1315" y="-985" />
<rect fill="#84A1AE" height="70" rx="15" width="70" x="1315" y="-1385" />
<rect fill="#84A1AE" height="70" rx="15" width="70" x="1315" y="-1485" />
<rect fill="#84A1AE" height="70" rx="15" width="70" x="1315" y="-2085" />
<rect fill="#84A1AE" height="70" rx="15" width="70" x="1315" y="-2185" />
<rect fill="#84A1AE" height="70" rx="15" width="70" x="1315" y="-2285" />
<rect fill="#84A1AE" height="70" rx="15" width="70" x="1315" y="-2685" />
<rect fill="#84A1AE" height="70" rx="15" width="70" x="1315" y="-2985" />
<rect fill="#84A1AE" height="70" rx="15" width="70" x="1315" y="-3185" />
<rect fill="#84A1AE" height="70" rx="15" width="70" x="1315" y="-3385" />
<rect fill="#84A1AE" height="70" rx="15" width="70" x="1415" y="-85" />
<rect fill="#84A1AE" height="70" rx="15" width="70" x="1415" y="-385" />
<rect fill="#84A1AE" height="70" rx="15" width="70" x="1415" y="-985" />
<rect fill="#84A1AE" height="70" rx="15" width="70" x="1415" y="-2585" />
<rect fill="#84A1AE" height="70" rx="15" width="70" x="1415" y="-3085" />
<rect fill="#84A1AE" height="70" rx="15" width="70" x="1415" y="-3385" />
<rect fill="#84A1AE" height="70" rx="15" width="70" x="1515" y="-85" />
<rect fill="#84A1AE" height="70" rx="15" width="70" x="1515" y="-685" />
<rect fill="#84A1AE" height="70" rx="15" width="70" x="1515" y="-1085" />
<rect fill="#84A1AE" height="70" rx="15" width="70" x="1515" y="-1485" />
<rect fill="#84A1AE" height="70" rx="15" width="70" x="1515" y="-2585" />
<rect fill="#84A1AE" height="70" rx="15" width="70" x="1515" y="-3085" />
<rect fill="#84A1AE" height="70" rx="15" width="70" x="1515" y="-3385" />
<rect fill="#84A1AE" height="70" rx="15" width="70" x="1615" y="-85" />
<rect fill="#84A1AE" height="70" rx="15" width="70" x="1615" y="-685" />
<rect fill="#84A1AE" height="70" rx="15" width="70" x="1615" y="-885" />
<rect fill="#84A1AE" height="70" rx="15" width="70" x="1615" y="-985" />
<rect fill="#84A1AE" height="70" rx="15" width="70" x="1615" y="-1085" />
<rect fill="#84A1AE" height="70" rx="15" width="70" x="1615" y="-1185" />
<rect fill="#84A1AE" height="70" rx="15" width="70" x="1615" y="-1285" />
<rect fill="#84A1AE" height="70" rx="15" width="70" x="1615" y="-1785" />
<rect fill="#84A1AE" height="70" rx="15" width="70" x="1615" y="-1885" />
<rect fill="#84A1AE" height="70" rx="15" width="70" x="1615" y="-2285" />
<rect fill="#84A1AE" height="70" rx="15" width="70" x="1615" y="-3085" />
<rect fill="#84A1AE" height="70" rx="15" width="70" x="1615" y="-3385" />
<rect fill="#84A1AE" height="70" rx="15" width="70" x="1715" y="-85" />
<rect fill="#84A1AE" height="70" rx="15" width="70" x="1715" y="-885" />
<rect fill="#84A1AE" height="70" rx="15" width="70" x="1715" y="-1185" />
<rect fill="#84A1AE" height="70" rx="15" width="70" x="1715" y="-1785" />
<rect fill="#84A1AE" height="70" rx="15" width="70" x="1715" y="-2085" />
<rect fill="#84A1AE" height="70" rx="15" width="70" x="1715" y="-3385" />
<rect fill="#84A1AE" height="70" rx="15" width="70" x="1815" y="-85" />
<rect fill="#84A1AE" height="70" rx="15" width="70" x="1815" y="-285" />
<rect fill="#84A1AE" height="70" rx="15" width="70" x="1815" y="-485" />
<rect fill="#84A1AE" height="70" rx="15" width="70" x="1815" y="-1285" />
<rect fill="#84A1AE" height="70" rx="15" width="70" x="1815" y="-1985" />
<rect fill="#84A1AE" height="70" rx="15" width="70" x="1815" y="-2085" />
<rect fill="#84A1AE" height="70" rx="15" width="70" x="1815" y="-2485" />
<rect fill="#84A1AE" height="70" rx="15" width="70" x="1815" y="-3185" />
<rect fill="#84A1AE" height="70" rx="15" width="70" x="1815" y="-3385" />
<rect fill="#84A1AE" height="70" rx="15" width="70" x="1915" y="-85" />
<rect fill="#84A1AE" height="70" rx="15" width="70" x="1915" y="-385" />
<rect fill="#84A1AE" height="70" rx="15" width="70" x="1915" y="-685" />
<rect fill="#84A1AE" height="70" rx="15" width="70" x="1915" y="-985" />
<rect fill="#84A1AE" height="70" rx="15" width="70" x="1915" y="-1085" />
<rect fill="#84A1AE" height="70" rx="15" width="70" x="1915" y="-1485" />
<rect fill="#84A1AE" height="70" rx="15" width="70" x="1915" y="-1885" />
<rect fill="#84A1AE" height="70" rx="15" width="70" x="1915" y="-2285" />
<rect fill="#84A1AE" height="70" rx="15" width="70" x="1915" y="-2385" />
<rect fill="#84A1AE" height="70" rx="15" width="70" x="1915" y="-2785" />
<rect fill="#84A1AE" height="70" rx="15" width="70" x="1915" y="-3385" />
<rect fill="#84A1AE" height="70" rx="15" width="70" x="2015" y="-85" />
<rect fill="#84A1AE" height="70" rx="15" width="70" x="2015" y="-185" />
<rect fill="#84A1AE" height="70" rx="15" width="70" x="2015" y="-885" />
<rect fill="#84A1AE" height="70" rx="15" width="70" x="2015" y="-1585" />
<rect fill="#84A1AE" height="70" rx="15" width="70" x="2015" y="-2285" />
<rect fill="#84A1AE" height="70" rx="15" width="70" x="2015" y="-2685" />
<rect fill="#84A1AE" height="70" rx="15" width="70" x="2015" y="-3385" />
<rect fill="#84A1AE" height="70" rx="15" width="70" x="2115" y="-85" />
<rect fill="#84A1AE" height="70" rx="15" width="70" x="2115" y="-985" />
<rect fill="#84A1AE" height="70" rx="15" width="70" x="2115" y="-1985" />
<rect fill="#84A1AE" height="70" rx="15" width="70" x="2115" y="-2385" />
<rect fill="#84A1AE" height="70" rx="15" width="70" x="2115" y="-2485" />
<rect fill="#84A1AE" height="70" rx="15" width="70" x="2115" y="-3085" />
<rect fill="#84A1AE" height="70" rx="15" width="70" x="2115" y="-3385" />
<rect fill="#84A1AE" height="70" rx="15" width="70" x="2215" y="-85" />
<rect fill="#84A1AE" height="70" rx="15" width="70" x="2215" y="-785" />
<rect fill="#84A1AE" height="70" rx="15" width="70" x="2215" y="-1185" />
<rect fill="#84A1AE" height="70" rx="15" width="70" x="2215" y="-1285" />
<rect fill="#84A1AE" height="70" rx="15" width="70" x="2215" y="-1385" />
<rect fill="#84A1AE" height="70" rx="15" width="70" x="2215" y="-3185" />
<rect fill="#84A1AE" height="70" rx="15" width="70" x="2215" y="-3385" />
<rect fill="#84A1AE" height="70" rx="15" width="70" x="2315" y="-85" />
<rect fill="#84A1AE" height="70" rx="15" width="70" x="2315" y="-285" />
<rect fill="#84A1AE" height="70" rx="15" width="70" x="2315" y="-585" />
<rect fill="#84A1AE" height="70" rx="15" width="70" x="2315" y="-985" />
<rect fill="#84A1AE" height="70" rx="15" width="70" x="2315" y="-1285" />
<rect fill="#84A1AE" height="70" rx="15" width="70" x="2315" y="-1885" />
<rect fill="#84A1AE" height="70" rx="15" width="70" x="2315" y="-2885" />
<rect fill="#84A1AE" height="70" rx="15" width="70" x="2315" y="-3085" />
<rect fill="#84A1AE" height="70" rx="15" width="70" x="2315" y="-3385" />
<rect fill="#84A1AE" height="70" rx="15" width="70" x="2415" y="-85" />
<rect fill="#84A1AE" height="70" rx="15" width="70" x="2415" y="-585" />
<rect fill="#84A1AE" height="70" rx="15" width="70" x="2415" y="-1185" />
<rect fill="#84A1AE" height="70" rx="15" width="70" x="2415" y="-1685" />
<rect fill="#84A1AE" height="70" rx="15" width="70" x="2415" y="-2785" />
<rect fill="#84A1AE" height="70" rx="15" width="70" x="2415" y="-3285" />
<rect fill="#84A1AE" height="70" rx="15" width="70" x="2415" y="-3385" />
<rect fill="#84A1AE" height="70" rx="15" width="70" x="2515" y="-85" />
<rect fill="#84A1AE" height="70" rx="15" width="70" x="2515" y="-385" />
<rect fill="#84A1AE" height="70" rx="15" width="70" x="2515" y="-585" />
<rect fill="#84A1AE" height="70" rx="15" width="70" x="2515" y="-985" />
<rect fill="#84A1AE" height="70" rx="15" width="70" x="2515" y="-1285" />
<rect fill="#84A1AE" height="70" rx="15" width="70" x="2515" y="-1685" />
<rect fill="#84A1AE" height="70" rx="15" width="70" x="2515" y="-3185" />
<rect fill="#84A1AE" height="70" rx="15" width="70" x="2515" y="-3285" />
<rect fill="#84A1AE" height="70" rx="15" width="70" x="2515" y="-3385" />
<rect fill="#84A1AE" height="70" rx="15" width="70" x="2615" y="-85" />
<rect fill="#84A1AE" height="70" rx="15" width="70" x="2615" y="-485" />
<rect fill="#84A1AE" height="70" rx="15" width="70" x="2615" y="-585" />
<rect fill="#84A1AE" height="70" rx="15" width="70" x="2615" y="-1685" />
<rect fill="#84A1AE" height="70" rx="15" width="70" x="2615" y="-1885" />
<rect fill="#84A1AE" height="70" rx="15" width="70" x="2615" y="-2185" />
<rect fill="#84A1AE" height="70" rx="15" width="70" x="2615" y="-2885" />
<rect fill="#84A1AE" height="70" rx="15" width="70" x="2615" y="-2985" />
<rect fill="#84A1AE" height="70" rx="15" width="70" x="2615" y="-3185" />
<rect fill="#84A1AE" height="70" rx="15" width="70" x="2615" y="-3385" />
<rect fill="#84A1AE" height="70" rx="15" width="70" x="2715" y="-85" />
<rect fill="#84A1AE" height="70" rx="15" width="70" x="2715" y="-185" />
<rect fill="#84A1AE" height="70" rx="15" width="70" x="2715" y="-585" />
<rect fill="#84A1AE" height="70" rx="15" width="70" x="2715" y="-885" />
<rect fill="#84A1AE" height="70" rx="15" width="70" x="2715" y="-1885" />
<rect fill="#84A1AE" height="70" rx="15" width="70" x="2715" y="-2085" />
<rect fill="#84A1AE" height="70" rx="15" width="70" x="2715" y="-2785" />
<rect fill="#84A1AE" height="70" rx="15" width="70" x="2715" y="-3185" />
<rect fill="#84A1AE" height="70" rx="15" width="70" x="2715" y="-3385" />
<rect fill="#84A1AE" height="70" rx="15" width="70" x="2815" y="-85" />
<rect fill="#84A1AE" height="70" rx="15" width="70" x="2815" y="-985" />
<rect fill="#84A1AE" height="70" rx="15" width="70" x="2815" y="-1085" />
<rect fill="#84A1AE" height="70" rx="15" width="70" x="2815" y="-1185" />
<rect fill="#84A1AE" height="70" rx="15" width="70" x="2815" y="-1385" />
<rect fill="#84A1AE" height="70" rx="15" width="70" x="2815" y="-1485" />
<rect fill="#84A1AE" height="70" rx="15" width="70" x="2815" y="-1585" />
<rect fill="#84A1AE" height="70" rx="15" width="70" x="2815" y="-1685" />
<rect fill="#84A1AE" height="70" rx="15" width="70" x="2815" y="-1885" />
<rect fill="#84A1AE" height="70" rx="15" width="70" x="2815" y="-2185" />
<rect fill="#84A1AE" height="70" rx="15" width="70" x="2815" y="-2385" />
<rect fill="#84A1AE" height="70" rx="15" width="70" x="2815" y="-3385" />
<rect fill="#84A1AE" height="70" rx="15" width="70" x="2915" y="-85" />
<rect fill="#84A1AE" height="70" rx="15" width="70" x="2915" y="-1085" />
<rect fill="#84A1AE" height="70" rx="15" width="70" x="2915" y="-1185" />
<rect fill="#84A1AE" height="70" rx="15" width="70" x="2915" y="-1285" />
<rect fill="#84A1AE" height="70" rx="15" width="70" x="2915" y="-1685" />
<rect fill="#84A1AE" height="70" rx="15" width="70" x="2915" y="-1885" />
<rect fill="#84A1AE" height="70" rx="15" width="70" x="2915" y="-2785" />
<rect fill="#84A1AE" height="70" rx="15" width="70" x="2915" y="-3385" />
<rect fill="#84A1AE" height="70" rx="15" width="70" x="3015" y="-85" />
<rect fill="#84A1AE" height="70" rx="15" width="70" x="3015" y="-185" />
<rect fill="#84A1AE" height="70" rx="15" width="70" x="3015" y="-885" />
<rect fill="#84A1AE" height="70" rx="15" width="70" x="3015" y="-1685" />
<rect fill="#84A1AE" height="70" rx="15" width="70" x="3015" y="-2185" />
<rect fill="#84A1AE" height="70" rx="15" width="70" x="3015" y="-2485" />
<rect fill="#84A1AE" height="70" rx="15" width="70" x="3015" y="-2685" />
<rect fill="#84A1AE" height="70" rx="15" width="70" x="3015" y="-3285" />
<rect fill="#84A1AE" height="70" rx="15" width="70" x="3015" y="-3385" />
<rect fill="#84A1AE" height="70" rx="15" width="70" x="3115" y="-85" />
<rect fill="#84A1AE" height="70" rx="15" width="70" x="3115" y="-885" />
<rect fill="#84A1AE" height="70" rx="15" width="70" x="3115" y="-985" />
<rect fill="#84A1AE" height="70" rx="15" width="70" x="3115" y="-1585" />
<rect fill="#84A1AE" height="70" rx="15" width="70" x="3115" y="-2185" />
<rect fill="#84A1AE" height="70" rx="15" width="70" x="3115" y="-2785" />
<rect fill="#84A1AE" height="70" rx="15" width="70" x="3115" y="-3385" />
<rect fill="#84A1AE" height="70" rx="15" width="70" x="3215" y="-85" />
<rect fill="#84A1AE" height="70" rx="15" width="70" x="3215" y="-485" />
<rect fill="#84A1AE" height="70" rx="15" width="70" x="3215" y="-885" />
<rect fill="#84A1AE" height="70" rx="15" width="70" x="3215" y="-985" />
<rect fill="#84A1AE" height="70" rx="15" width="70" x="3215" y="-1985" />
<rect fill="#84A1AE" height="70" rx="15" width="70" x="3215" y="-2185" />
<rect fill="#84A1AE" height="70" rx="15" width="70" x="3215" y="-2285" />
<rect fill="#84A1AE" height="70" rx="15" width="70" x="3215" y="-2485" />
<rect fill="#84A1AE" height="70" rx="15" width="70" x="3215" y="-2885" />
<rect fill="#84A1AE" height="70" rx="15" width="70" x="3215" y="-3385" />
<rect fill="#84A1AE" height="70" rx="15" width="70" x="3315" y="-85" />
<rect fill="#84A1AE" height="70" rx="15" width="70" x="3315" y="-185" />
<rect fill="#84A1AE" height="70" rx="15" width="70" x="3315" y="-285" />
<rect fill="#84A1AE" height="70" rx="15" width="70" x="3315" y="-385" />
<rect fill="#84A1AE" height="70" rx="15" width="70" x="3315" y="-485" />
<rect fill="#84A1AE" height="70" rx="15" width="70" x="3315" y="-585" />
<rect fill="#84A1AE" height="70" rx="15" width="70" x="3315" y="-685" />
<rect fill="#84A1AE" height="70" rx="15" width="70" x="3315" y="-785" />
<rect fill="#84A1AE" height="70" rx="15" width="70" x="3315" y="-885" />
<rect fill="#84A1AE" height="70" rx="15" width="70" x="3315" y="-985" />
<rect fill="#84A1AE" height="70" rx="15" width="70" x="3315" y="-1085" />
<rect fill="#84A1AE" height="70" rx="15" width="70" x="3315" y="-1185" />
<rect fill="#84A1AE" height="70" rx="15" width="70" x="3315" y="-1285" />
<rect fill="#84A1AE" height="70" rx="15" width="70" x="3315" y="-1385" />
<rect fill="#84A1AE" height="70" rx="15" width="70" x="3315" y="-1485" />
<rect fill="#84A1AE" height="70" rx="15" width="70" x="3315" y="-1585" />
<rect fill="#84A1AE" height="70" rx="15" width="70" x="3315" y="-1685" />
<rect fill="#84A1AE" height="70" rx="15" width="70" x="3315" y="-1785" />
<rect fill="#84A1AE" height="70" rx="15" width="70" x="3315" y="-1885" />
<rect fill="#84A1AE" height="70" rx="15" width="70" x="3315" y="-1985" />
<rect fill="#84A1AE" height="70" rx="15" width="70" x="3315" y="-2085" />
<rect fill="#84A1AE" height="70" rx="15" width="70" x="3315" y="-2185" />
<rect fill="#84A1AE" height="70" rx="15" width="70" x="3315" y="-2285" />
<rect fill="#84A1AE" height="70" rx="15" width="70" x="3315" y="-2385" />
<rect fill="#84A1AE" height="70" rx="15" width="70" x="3315" y="-2485" />
<rect fill="#84A1AE" height="70" rx="15" width="70" x="3315" y="-2585" />
<rect fill="#84A1AE" height="70" rx="15" width="70" x="3315" y="-2685" />
<rect fill="#84A1AE" height="70" rx="15" width="70" x="3315" y="-2785" />
<rect fill="#84A1AE" height="70" rx="15" width="70" x="3315" y="-2885" />
<rect fill="#84A1AE" height="70" rx="15" width="70" x="3315" y="-2985" />
<rect fill="#84A1AE" height="70" rx="15" width="70" x="3315" y="-3085" />
<rect fill="#84A1AE" height="70" rx="15" width="70" x="3315" y="-3185" />
<rect fill="#84A1AE" height="70" rx="15" width="70" x="3315" y="-3285" />
<rect fill="#84A1AE" height="70" rx="15" width="70" x="3315" y="-3385" />
<circle cx="2350" cy="-2250" fill="#c1433c" r="35"> <animate attributeName="cy" dur="24.64s" keyTimes="0.0;0.0112359551;0.0337078652;0.0449438202;0.1011235955;0.1123595506;0.1235955056;0.1348314607;0.1460674157;0.1573033708;0.1685393258;0.1797752809;0.191011236;0.202247191;0.2134831461;0.2247191011;0.2359550562;0.2471910112;0.2696629213;0.2808988764;0.2921348315;0.3033707865;0.3146067416;0.3370786517;0.3483146067;0.3595505618;0.3820224719;0.393258427;0.404494382;0.4157303371;0.4269662921;0.4719101124;0.4831460674;0.4943820225;0.5056179775;0.5168539326;1.0" repeatCount="indefinite" values="-2250;-2250;-2250;-2150;-2150;-2050;-1950;-1950;-1850;-1850;-1750;-1650;-1650;-1550;-1450;-1350;-1250;-1350;-1350;-1250;-1150;-1150;-1050;-1050;-950;-1050;-1050;-1150;-1150;-1250;-1350;-1350;-1250;-1150;-1150;-1050;-1050"/>
<animate attributeName="cx" dur="24.64s" keyTimes="0.0;0.0112359551;0.0224719101;0.0337078652;0.0449438202;0.0561797753;0.0674157303;0.0786516854;0.0898876404;0.1011235955;0.1235955056;0.1348314607;0.1460674157;0.1573033708;0.1797752809;0.191011236;0.2471910112;0.2584269663;0.2696629213;0.2921348315;0.3033707865;0.3146067416;0.3258426966;0.3370786517;0.3595505618;0.3707865169;0.3820224719;0.393258427;0.404494382;0.4269662921;0.4382022472;0.4494382022;0.4606741573;0.4719101124;0.4943820225;0.5056179775;0.5168539326;0.5280898876;1.0" repeatCount="indefinite" values="2350;2350;2250;2150;2150;2050;1950;1850;1750;1650;1650;1750;1750;1850;1850;1750;1750;1650;1550;1550;1450;1450;1350;1250;1250;1350;1450;1450;1550;1550;1650;1750;1850;1950;1950;1850;1850;1750;1750"/>
<animate attributeName="visibility" dur="24.64s" keyTimes="0.0;0.0112359551;0.5168539326;0.5280898876;1.0" repeatCount="indefinite" values="visible;visible;visible;hidden;hidden"/> </circle>
<circle cx="1350" cy="-1150" fill="#2e6f9e" r="35"> <animate attributeName="cy" dur="24.64s" keyTimes="0.0;0.0112359551;0.0449438202;0.0561797753;0.0786516854;0.0898876404;0.1011235955;0.1235955056;0.1348314607;0.1460674157;0.1573033708;0.1685393258;0.2247191011;0.2359550562;0.2471910112;0.2584269663;0.2696629213;0.2808988764;0.2921348315;0.4157303371;0.4269662921;0.4382022472;0.5617977528;0.5730337079;0.5842696629;0.595505618;0.606741573;0.6179775281;0.6516853933;0.6629213483;0.6741573034;0.7415730337;0.7528089888;0.8426966292;0.8539325843;0.8988764045;0.9101123596;0.9213483146;0.9438202247;0.9550561798;1.0" repeatCount="indefinite" values="-1150;-1150;-1150;-1050;-1050;-950;-1050;-1050;-950;-850;-750;-650;-650;-550;-550;-650;-650;-750;-650;-650;-550;-650;-650;-550;-650;-650;-550;-650;-650;-750;-650;-650;-550;-550;-450;-450;-350;-250;-250;-350;-350"/>
<animate attributeName="cx" dur="24.64s" keyTimes="0.0;0.0112359551;0.0224719101;0.0337078652;0.0449438202;0.0561797753;0.0674157303;0.0786516854;0.1011235955;0.1123595506;0.1235955056;0.191011236;0.202247191;0.2134831461;0.3595505618;0.3707865169;0.3820224719;0.393258427;0.404494382;0.4494382022;0.4606741573;0.4719101124;0.4831460674;0.4943820225;0.5056179775;0.5168539326;0.5280898876;0.5393258427;0.5505617978;0.6292134831;0.6404494382;0.6853932584;0.6966292135;0.7078651685;0.7191011236;0.7303370787;0.7415730337;0.7528089888;0.7640449438;0.7752808989;0.7865168539;0.797752809;0.808988764;0.8202247191;0.8314606742;0.8426966292;0.8539325843;0.8651685393;0.8764044944;0.8876404494;0.8988764045;0.9213483146;0.9325842697;0.9438202247;0.9550561798;0.9662921348;0.9775280899;0.9887640449;1.0" repeatCount="indefinite" values="1350;1350;1450;1550;1450;1450;1350;1250;1250;1150;1050;1050;950;1050;1050;950;1050;1050;1150;1150;1050;1150;1150;1250;1250;1150;1150;1050;1150;1150;1250;1250;1350;1350;1250;1350;1450;1450;1550;1650;1750;1850;1950;2050;2150;2250;2250;2350;2450;2550;2450;2450;2550;2650;2650;2750;2850;2950;2950"/>
<animate attributeName="visibility" dur="24.64s" keyTimes="0.0;0.0112359551;0.9775280899;0.9887640449;1.0" repeatCount="indefinite" values="visible;visible;visible;hidden;hidden"/> </circle>
<circle cx="2250" cy="-350" fill="#6e81af" r="35"> <animate attributeName="cy" dur="24.64s" keyTimes="0.0;0.0112359551;0.0337078652;0.0449438202;0.0561797753;0.0674157303;0.1348314607;0.1460674157;0.2247191011;0.2359550562;0.3820224719;0.393258427;0.404494382;0.4157303371;0.4269662921;0.4382022472;0.4494382022;0.5056179775;0.5168539326;0.5280898876;0.5393258427;1.0" repeatCount="indefinite" values="-350;-350;-350;-450;-450;-550;-550;-650;-650;-550;-550;-650;-650;-750;-750;-850;-950;-950;-850;-750;-650;-650"/>
<animate attributeName="cx" dur="24.64s" keyTimes="0.0;0.0112359551;0.0224719101;0.0337078652;0.0449438202;0.0561797753;0.0674157303;0.0786516854;0.0898876404;0.1011235955;0.1123595506;0.1235955056;0.1348314607;0.1460674157;0.1573033708;0.1685393258;0.1797752809;0.191011236;0.202247191;0.3258426966;0.3370786517;0.3483146067;0.3595505618;0.3707865169;0.3820224719;0.393258427;0.404494382;0.4157303371;0.4269662921;0.4494382022;0.4606741573;0.4719101124;0.4831460674;0.4943820225;0.5056179775;1.0" repeatCount="indefinite" values="2250;2250;2150;2050;2050;1950;1950;1850;1750;1650;1550;1450;1350;1350;1250;1150;1150;1250;1150;1150;1050;950;850;750;650;650;550;550;650;650;550;450;350;250;150;150"/>
<animate attributeName="visibility" dur="24.64s" keyTimes="0.0;0.0112359551;0.5280898876;0.5393258427;1.0" repeatCount="indefinite" values="visible;visible;visible;hidden;hidden"/> </circle>
<circle cx="1850" cy="-1850" fill="#00b9c8" r="35"> <animate attributeName="cy" dur="24.64s" keyTimes="0.0;0.0112359551;0.0224719101;0.0337078652;0.0449438202;0.0674157303;0.0786516854;0.0898876404;0.1123595506;0.1235955056;0.1348314607;0.1460674157;0.1573033708;1.0" repeatCount="indefinite" values="-1850;-1850;-1750;-1650;-1550;-1550;-1450;-1350;-1350;-1250;-1250;-1150;-1050;-1050"/>
<animate attributeName="cx" dur="24.64s" keyTimes="0.0;0.0112359551;0.0449438202;0.0561797753;0.0674157303;0.0898876404;0.1011235955;0.1123595506;0.1235955056;0.1348314607;0.1573033708;0.1685393258;1.0" repeatCount="indefinite" values="1850;1850;1850;1950;1850;1850;1950;2050;2050;2150;2150;2250;2250"/>
<animate attributeName="visibility" dur="24.64s" keyTimes="0.0;0.0112359551;0.1573033708;0.1685393258;1.0" repeatCount="indefinite" values="visible;visible;visible;hidden;hidden"/> </circle>
<circle cx="1250" cy="-1550" fill="#72D5C8" r="35"> <animate attributeName="cy" dur="24.64s" keyTimes="0.0;0.0112359551;0.1011235955;0.1123595506;0.1235955056;0.1573033708;0.1685393258;0.1797752809;0.191011236;1.0" repeatCount="indefinite" values="-1550;-1550;-1550;-1450;-1350;-1350;-1250;-1150;-1050;-1050"/>
<animate attributeName="cx" dur="24.64s" keyTimes="0.0;0.0112359551;0.0224719101;0.0337078652;0.0449438202;0.0561797753;0.0674157303;0.0786516854;0.0898876404;0.1011235955;0.1235955056;0.1348314607;0.1460674157;0.1573033708;0.191011236;0.202247191;0.2134831461;0.2247191011;0.2359550562;0.2471910112;1.0" repeatCount="indefinite" values="1250;1250;1350;1450;1550;1650;1750;1850;1950;1850;1850;1950;2050;2150;2150;2250;2350;2450;2550;2650;2650"/>
<animate attributeName="visibility" dur="24.64s" keyTimes="0.0;0.0112359551;0.2359550562;0.2471910112;1.0" repeatCount="indefinite" values="visible;visible;visible;hidden;hidden"/> </circle>
<circle cx="3250" cy="-1350" fill="#0ea08c" r="35"> <animate attributeName="cy" dur="24.64s" keyTimes="0.0;0.0112359551;0.0449438202;0.0561797753;1.0" repeatCount="indefinite" values="-1350;-1350;-1350;-1450;-1450"/>
<animate attributeName="cx" dur="24.64s" keyTimes="0.0;0.0112359551;0.0224719101;0.0337078652;0.0449438202;1.0" repeatCount="indefinite" values="3250;3250;3150;3050;2950;2950"/>
<animate attributeName="visibility" dur="24.64s" keyTimes="0.0;0.0112359551;0.0449438202;0.0561797753;1.0" repeatCount="indefinite" values="visible;visible;visible;hidden;hidden"/> </circle>
<circle cx="1350" cy="-2850" fill="#8F7B66" r="35"> <animate attributeName="cy" dur="24.64s" keyTimes="0.0;0.0112359551;0.0224719101;0.0337078652;1.0" repeatCount="indefinite" values="-2850;-2850;-2850;-2950;-2950"/>
<animate attributeName="cx" dur="24.64s" keyTimes="0.0;0.0112359551;0.0224719101;0.0337078652;0.0449438202;0.0561797753;0.0674157303;0.0786516854;0.0898876404;0.1011235955;1.0" repeatCount="indefinite" values="1350;1350;1450;1450;1550;1650;1750;1850;1950;2050;2050"/>
<animate attributeName="visibility" dur="24.64s" keyTimes="0.0;0.0112359551;0.0898876404;0.1011235955;1.0" repeatCount="indefinite" values="visible;visible;visible;hidden;hidden"/> </circle>
<circle cx="2850" cy="-250" fill="#c1433c" r="35"> <animate attributeName="cy" dur="24.64s" keyTimes="0.0;0.0112359551;0.0561797753;0.0674157303;0.1123595506;0.1235955056;0.1348314607;0.1460674157;0.2134831461;0.2247191011;0.5842696629;0.595505618;0.606741573;0.6966292135;0.7078651685;0.7865168539;0.797752809;1.0" repeatCount="indefinite" values="-250;-250;-250;-350;-350;-450;-450;-550;-550;-650;-650;-750;-650;-650;-550;-550;-650;-650"/>
<animate attributeName="cx" dur="24.64s" keyTimes="0.0;0.0112359551;0.0224719101;0.0337078652;0.0449438202;0.0561797753;0.0674157303;0.0786516854;0.0898876404;0.1011235955;0.1123595506;0.1235955056;0.1348314607;0.1460674157;0.1573033708;0.1685393258;0.1797752809;0.191011236;0.202247191;0.2134831461;0.2247191011;0.2359550562;0.2471910112;0.2584269663;0.2696629213;0.2808988764;0.3820224719;0.393258427;0.4157303371;0.4269662921;0.4382022472;0.4719101124;0.4831460674;0.5056179775;0.5168539326;0.5505617978;0.5617977528;0.5730337079;0.6179775281;0.6292134831;0.6741573034;0.6853932584;0.7078651685;0.7191011236;0.7640449438;0.7752808989;0.7865168539;0.797752809;0.808988764;0.8202247191;0.8314606742;0.8426966292;1.0" repeatCount="indefinite" values="2850;2850;2750;2650;2550;2450;2450;2350;2250;2150;2050;2050;1950;1950;1850;1750;1650;1550;1450;1350;1350;1250;1150;1150;1250;1150;1150;1250;1250;1350;1250;1250;1350;1350;1250;1250;1350;1250;1250;1350;1350;1450;1450;1350;1350;1450;1350;1350;1250;1150;1050;950;950"/>
<animate attributeName="visibility" dur="24.64s" keyTimes="0.0;0.0112359551;0.8314606742;0.8426966292;1.0" repeatCount="indefinite" values="visible;visible;visible;hidden;hidden"/> </circle>
<circle cx="2350" cy="-1950" fill="#2e6f9e" r="35"> <animate attributeName="cy" dur="24.64s" keyTimes="0.0;0.0112359551;0.0224719101;0.0337078652;0.0674157303;0.0786516854;0.1348314607;0.1460674157;0.1573033708;0.2134831461;0.2247191011;0.2696629213;0.2808988764;0.2921348315;0.3033707865;0.3146067416;0.3258426966;1.0" repeatCount="indefinite" values="-1950;-1950;-1950;-2050;-2050;-2150;-2150;-2250;-2350;-2350;-2250;-2250;-2350;-2350;-2450;-2450;-2550;-2550"/>
<animate attributeName="cx" dur="24.64s" keyTimes="0.0;0.0112359551;0.0224719101;0.0337078652;0.0449438202;0.0561797753;0.0674157303;0.0786516854;0.0898876404;0.1011235955;0.1123595506;0.1235955056;0.1348314607;0.1573033708;0.1685393258;0.1797752809;0.191011236;0.202247191;0.2134831461;0.2247191011;0.2359550562;0.2471910112;0.2584269663;0.2696629213;0.2808988764;0.2921348315;0.3033707865;0.3146067416;1.0" repeatCount="indefinite" values="2350;2350;2250;2250;2150;2050;1950;1950;1850;1750;1650;1550;1450;1450;1350;1250;1150;1050;950;950;850;750;650;550;550;450;450;350;350"/>
<animate attributeName="visibility" dur="24.64s" keyTimes="0.0;0.0112359551;0.3146067416;0.3258426966;1.0" repeatCount="indefinite" values="visible;visible;visible;hidden;hidden"/> </circle>
<circle cx="450" cy="-2250" fill="#6e81af" r="35"> <animate attributeName="cy" dur="24.64s" keyTimes="0.0;0.0112359551;0.0224719101;0.0337078652;1.0" repeatCount="indefinite" values="-2250;-2250;-2350;-2450;-2450"/>
<animate attributeName="cx" dur="24.64s" keyTimes="0.0;0.0112359551;0.0337078652;0.0449438202;1.0" repeatCount="indefinite" values="450;450;450;550;550"/>
<animate attributeName="visibility" dur="24.64s" keyTimes="0.0;0.0112359551;0.0337078652;0.0449438202;1.0" repeatCount="indefinite" values="visible;visible;visible;hidden;hidden"/> </circle>
<circle cx="1750" cy="-1050" fill="none" r="35" stroke="#c1433c" stroke-width="10"> <animate attributeName="visibility" dur="24.64s" keyTimes="0.0;0.0112359551;0.5168539326;0.5280898876;1.0" repeatCount="indefinite" values="visible;visible;visible;hidden;hidden"/> </circle>
<circle cx="2950" cy="-350" fill="none" r="35" stroke="#2e6f9e" stroke-width="10"> <animate attributeName="visibility" dur="24.64s" keyTimes="0.0;0.0112359551;0.9775280899;0.9887640449;1.0" repeatCount="indefinite" values="visible;visible;visible;hidden;hidden"/> </circle>
<circle cx="150" cy="-650" fill="none" r="35" stroke="#6e81af" stroke-width="10"> <animate attributeName="visibility" dur="24.64s" keyTimes="0.0;0.0112359551;0.5280898876;0.5393258427;1.0" repeatCount="indefinite" values="visible;visible;visible;hidden;hidden"/> </circle>
<circle cx="2250" cy="-1050" fill="none" r="35" stroke="#00b9c8" stroke-width="10"> <animate attributeName="visibility" dur="24.64s" keyTimes="0.0;0.0112359551;0.1573033708;0.1685393258;1.0" repeatCount="indefinite" values="visible;visible;visible;hidden;hidden"/> </circle>
<circle cx="2650" cy="-1050" fill="none" r="35" stroke="#72D5C8" stroke-width="10"> <animate attributeName="visibility" dur="24.64s" keyTimes="0.0;0.0112359551;0.2359550562;0.2471910112;1.0" repeatCount="indefinite" values="visible;visible;visible;hidden;hidden"/> </circle>
<circle cx="2950" cy="-1450" fill="none" r="35" stroke="#0ea08c" stroke-width="10"> <animate attributeName="visibility" dur="24.64s" keyTimes="0.0;0.0112359551;0.0449438202;0.0561797753;1.0" repeatCount="indefinite" values="visible;visible;visible;hidden;hidden"/> </circle>
<circle cx="2050" cy="-2950" fill="none" r="35" stroke="#8F7B66" stroke-width="10"> <animate attributeName="visibility" dur="24.64s" keyTimes="0.0;0.0112359551;0.0898876404;0.1011235955;1.0" repeatCount="indefinite" values="visible;visible;visible;hidden;hidden"/> </circle>
<circle cx="950" cy="-650" fill="none" r="35" stroke="#c1433c" stroke-width="10"> <animate attributeName="visibility" dur="24.64s" keyTimes="0.0;0.0112359551;0.8314606742;0.8426966292;1.0" repeatCount="indefinite" values="visible;visible;visible;hidden;hidden"/> </circle>
<circle cx="350" cy="-2550" fill="none" r="35" stroke="#2e6f9e" stroke-width="10"> <animate attributeName="visibility" dur="24.64s" keyTimes="0.0;0.0112359551;0.3146067416;0.3258426966;1.0" repeatCount="indefinite" values="visible;visible;visible;hidden;hidden"/> </circle>
<circle cx="550" cy="-2450" fill="none" r="35" stroke="#6e81af" stroke-width="10"> <animate attributeName="visibility" dur="24.64s" keyTimes="0.0;0.0112359551;0.0337078652;0.0449438202;1.0" repeatCount="indefinite" values="visible;visible;visible;hidden;hidden"/> </circle>
</svg>