<?xml version="1.0" encoding="UTF-8"?>
        <svg xmlns="http://www.w3.org/2000/svg" xmlns:xlink="http://www.w3.org/1999/xlink"
             width="360" height="360" viewBox="0 -3600 3600 3600">

<defs>

</defs>

<rect fill="#84A1AE" height="70" rx="15" width="70" x="215" y="-285" />
<rect fill="#84A1AE" height="70" rx="15" width="70" x="215" y="-385" />
<rect fill="#84A1AE" height="70" rx="15" width="70" x="215" y="-485" />
<rect fill="#84A1AE" height="70" rx="15" width="70" x="215" y="-585" />
<rect fill="#84A1AE" height="70" rx="15" width="70" x="215" y="-685" />
<rect fill="#84A1AE" height="70" rx="15" width="70" x="215" y="-785" />
<rect fill="#84A1AE" height="70" rx="15" width="70" x="215" y="-885" />
<rect fill="#84A1AE" height="70" rx="15" width="70" x="215" y="-985" />
<rect fill="#84A1AE" height="70" rx="15" width="70" x="215" y="-1085" />
<rect fill="#84A1AE" height="70" rx="15" width="70" x="215" y="-1185" />
<rect fill="#84A1AE" height="70" rx="15" width="70" x="215" y="-1285" />
<rect fill="#84A1AE" height="70" rx="15" width="70" x="215" y="-1385" />
<rect fill="#84A1AE" height="70" rx="15" width="70" x="215" y="-1485" />
<rect fill="#84A1AE" height="70" rx="15" width="70" x="215" y="-1585" />
<rect fill="#84A1AE" height="70" rx="15" width="70" x="215" y="-1685" />
<rect fill="#84A1AE" height="70" rx="15" width="70" x="215" y="-1785" />
<rect fill="#84A1AE" height="70" rx="15" width="70" x="215" y="-1885" />
<rect fill="#84A1AE" height="70" rx="15" width="70" x="215" y="-1985" />
<rect fill="#84A1AE" height="70" rx="15" width="70" x="215" y="-2085" />
<rect fill="#84A1AE" height="70" rx="15" width="70" x="215" y="-2185" />
<rect fill="#84A1AE" height="70" rx="15" width="70" x="215" y="-2285" />
<rect fill="#84A1AE" height="70" rx="15" width="70" x="215" y="-2385" />
<rect fill="#84A1AE" height="70" rx="15" width="70" x="215" y="-2485" />
<rect fill="#84A1AE" height="70" rx="15" width="70" x="215" y="-2585" />
<rect fill="#84A1AE" height="70" rx="15" width="70" x="215" y="-2685" />
<rect fill="#84A1AE" height="70" rx="15" width="70" x="215" y="-2785" />
<rect fill="#84A1AE" height="70" rx="15" width="70" x="215" y="-2885" />
<rect fill="#84A1AE" height="70" rx="15" width="70" x="215" y="-2985" />
<rect fill="#84A1AE" height="70" rx="15" width="70" x="215" y="-3085" />
<rect fill="#84A1AE" height="70" rx="15" width="70" x="215" y="-3185" />
<rect fill="#84A1AE" height="70" rx="15" width="70" x="215" y="-3285" />
<rect fill="#84A1AE" height="70" rx="15" width="70" x="215" y="-3385" />
<rect fill="#84A1AE" height="70" rx="15" width="70" x="315" y="-285" />
<rect fill="#84A1AE" height="70" rx="15" width="70" x="315" y="-485" />
<rect fill="#84A1AE" height="70" rx="15" width="70" x="315" y="-885" />
<rect fill="#84A1AE" height="70" rx="15" width="70" x="315" y="-1785" />
<rect fill="#84A1AE" height="70" rx="15" width="70" x="315" y="-1885" />
<rect fill="#84A1AE" height="70" rx="15" width="70" x="315" y="-1985" />
<rect fill="#84A1AE" height="70" rx="15" width="70" x="315" y="-2285" />
<rect fill="#84A1AE" height="70" rx="15" width="70" x="315" y="-2585" />
<rect fill="#84A1AE" height="70" rx="15" width="70" x="315" y="-3385" />
<rect fill="#84A1AE" height="70" rx="15" width="70" x="415" y="-285" />
<rect fill="#84A1AE" height="70" rx="15" width="70" x="415" y="-1985" />
<rect fill="#84A1AE" height="70" rx="15" width="70" x="415" y="-2185" />
<rect fill="#84A1AE" height="70" rx="15" width="70" x="415" y="-2285" />
<rect fill="#84A1AE" height="70" rx="15" width="70" x="415" y="-2385" />
<rect fill="#84A1AE" height="70" rx="15" width="70" x="415" y="-3085" />
<rect fill="#84A1AE" height="70" rx="15" width="70" x="415" y="-3385" />
<rect fill="#84A1AE" height="70" rx="15" width="70" x="515" y="-285" />
<rect fill="#84A1AE" height="70" rx="15" width="70" x="515" y="-585" />
<rect fill="#84A1AE" height="70" rx="15" width="70" x="515" y="-785" />
<rect fill="#84A1AE" height="70" rx="15" width="70" x="515" y="-885" />
<rect fill="#84A1AE" height="70" rx="15" width="70" x="515" y="-1185" />
<rect fill="#84A1AE" height="70" rx="15" width="70" x="515" y="-1985" />
<rect fill="#84A1AE" height="70" rx="15" width="70" x="515" y="-3285" />
<rect fill="#84A1AE" height="70" rx="15" width="70" x="515" y="-3385" />
<rect fill="#84A1AE" height="70" rx="15" width="70" x="615" y="-285" />
<rect fill="#84A1AE" height="70" rx="15" width="70" x="615" y="-385" />
<rect fill="#84A1AE" height="70" rx="15" width="70" x="615" y="-785" />
<rect fill="#84A1AE" height="70" rx="15" width="70" x="615" y="-985" />
<rect fill="#84A1AE" height="70" rx="15" width="70" x="615" y="-1185" />
<rect fill="#84A1AE" height="70" rx="15" width="70" x="615" y="-1285" />
<rect fill="#84A1AE" height="70" rx="15" width="70" x="615" y="-2985" />
<rect fill="#84A1AE" height="70" rx="15" width="70" x="615" y="-3085" />
<rect fill="#84A1AE" height="70" rx="15" width="70" x="615" y="-3285" />
<rect fill="#84A1AE" height="70" rx="15" width="70" x="615" y="-3385" />
<rect fill="#84A1AE" height="70" rx="15" width="70" x="715" y="-285" />
<rect fill="#84A1AE" height="70" rx="15" width="70" x="715" y="-485" />
<rect fill="#84A1AE" height="70" rx="15" width="70" x="715" y="-1685" />
<rect fill="#84A1AE" height="70" rx="15" width="70" x="715" y="-2185" />
<rect fill="#84A1AE" height="70" rx="15" width="70" x="715" y="-2385" />
<rect fill="#84A1AE" height="70" rx="15" width="70" x="715" y="-3385" />
<rect fill="#84A1AE" height="70" rx="15" width="70" x="815" y="-285" />
<rect fill="#84A1AE" height="70" rx="15" width="70" x="815" y="-585" />
<rect fill="#84A1AE" height="70" rx="15" width="70" x="815" y="-685" />
<rect fill="#84A1AE" height="70" rx="15" width="70" x="815" y="-1285" />
<rect fill="#84A1AE" height="70" rx="15" width="70" x="815" y="-1385" />
<rect fill="#84A1AE" height="70" rx="15" width="70" x="815" y="-1585" />
<rect fill="#84A1AE" height="70" rx="15" width="70" x="815" y="-1985" />
<rect fill="#84A1AE" height="70" rx="15" width="70" x="815" y="-2985" />
<rect fill="#84A1AE" height="70" rx="15" width="70" x="815" y="-3085" />
<rect fill="#84A1AE" height="70" rx="15" width="70" x="815" y="-3385" />
<rect fill="#84A1AE" height="70" rx="15" width="70" x="915" y="-285" />
<rect fill="#84A1AE" height="70" rx="15" width="70" x="915" y="-385" />
<rect fill="#84A1AE" height="70" rx="15" width="70" x="915" y="-885" />
<rect fill="#84A1AE" height="70" rx="15" width="70" x="915" y="-1785" />
<rect fill="#84A1AE" height="70" rx="15" width="70" x="915" y="-2485" />
<rect fill="#84A1AE" height="70" rx="15" width="70" x="915" y="-2585" />
<rect fill="#84A1AE" height="70" rx="15" width="70" x="915" y="-2685" />
<rect fill="#84A1AE" height="70" rx="15" width="70" x="915" y="-2785" />
<rect fill="#84A1AE" height="70" rx="15" width="70" x="915" y="-3185" />
<rect fill="#84A1AE" height="70" rx="15" width="70" x="915" y="-3385" />
<rect fill="#84A1AE" height="70" rx="15" width="70" x="1015" y="-285" />
<rect fill="#84A1AE" height="70" rx="15" width="70" x="1015" y="-385" />
<rect fill="#84A1AE" height="70" rx="15" width="70" x="1015" y="-1485" />
<rect fill="#84A1AE" height="70" rx="15" width="70" x="1015" y="-1885" />
<rect fill="#84A1AE" height="70" rx="15" width="70" x="1015" y="-2485" />
<rect fill="#84A1AE" height="70" rx="15" width="70" x="1015" y="-3285" />
<rect fill="#84A1AE" height="70" rx="15" width="70" x="1015" y="-3385" />
<rect fill="#84A1AE" height="70" rx="15" width="70" x="1115" y="-285" />
<rect fill="#84A1AE" height="70" rx="15" width="70" x="1115" y="-485" />
<rect fill="#84A1AE" height="70" rx="15" width="70" x="1115" y="-1185" />
<rect fill="#84A1AE" height="70" rx="15" width="70" x="1115" y="-1285" />
<rect fill="#84A1AE" height="70" rx="15" width="70" x="1115" y="-2085" />
<rect fill="#84A1AE" height="70" rx="15" width="70" x="1115" y="-2485" />
<rect fill="#84A1AE" height="70" rx="15" width="70" x="1115" y="-3285" />
<rect fill="#84A1AE" height="70" rx="15" width="70" x="1115" y="-3385" />
<rect fill="#84A1AE" height="70" rx="15" width="70" x="1215" y="-285" />
<rect fill="#84A1AE" height="70" rx="15" width="70" x="1215" y="-385" />
<rect fill="#84A1AE" height="70" rx="15" width="70" x="1215" y="-585" />
<rect fill="#84A1AE" height="70" rx="15" width="70" x="1215" y="-1185" />
<rect fill="#84A1AE" height="70" rx="15" width="70" x="1215" y="-1385" />
<rect fill="#84A1AE" height="70" rx="15" width="70" x="1215" y="-1585" />
<rect fill="#84A1AE" height="70" rx="15" width="70" x="1215" y="-1685" />
<rect fill="#84A1AE" height="70" rx="15" width="70" x="1215" y="-1885" />
<rect fill="#84A1AE" height="70" rx="15" width="70" x="1215" y="-2485" />
<rect fill="#84A1AE" height="70" rx="15" width="70" x="1215" y="-2685" />
<rect fill="#84A1AE" height="70" rx="15" width="70" x="1215" y="-2885" />
<rect fill="#84A1AE" height="70" rx="15" width="70" x="1215" y="-2985" />
<rect fill="#84A1AE" height="70" rx="15" width="70" x="1215" y="-3285" />
<rect fill="#84A1AE" height="70" rx="15" width="70" x="1215" y="-3385" />
<rect fill="#84A1AE" height="70" rx="15" width="70" x="1315" y="-285" />
<rect fill="#84A1AE" height="70" rx="15" width="70" x="1315" y="-2685" />
<rect fill="#84A1AE" height="70" rx="15" width="70" x="1315" y="-3285" />
<rect fill="#84A1AE" height="70" rx="15" width="70" x="1315" y="-3385" />
<rect fill="#84A1AE" height="70" rx="15" width="70" x="1415" y="-285" />
<rect fill="#84A1AE" height="70" rx="15" width="70" x="1415" y="-485" />
<rect fill="#84A1AE" height="70" rx="15" width="70" x="1415" y="-585" />
<rect fill="#84A1AE" height="70" rx="15" width="70" x="1415" y="-685" />
<rect fill="#84A1AE" height="70" rx="15" width="70" x="1415" y="-1685" />
<rect fill="#84A1AE" height="70" rx="15" width="70" x="1415" y="-2085" />
<rect fill="#84A1AE" height="70" rx="15" width="70" x="1415" y="-2585" />
<rect fill="#84A1AE" height="70" rx="15" width="70" x="1415" y="-2785" />
<rect fill="#84A1AE" height="70" rx="15" width="70" x="1415" y="-2885" />
<rect fill="#84A1AE" height="70" rx="15" width="70" x="1415" y="-3185" />
<rect fill="#84A1AE" height="70" rx="15" width="70" x="1415" y="-3385" />
<rect fill="#84A1AE" height="70" rx="15" width="70" x="1515" y="-285" />
<rect fill="#84A1AE" height="70" rx="15" width="70" x="1515" y="-485" />
<rect fill="#84A1AE" height="70" rx="15" width="70" x="1515" y="-1285" />
<rect fill="#84A1AE" height="70" rx="15" width="70" x="1515" y="-1585" />
<rect fill="#84A1AE" height="70" rx="15" width="70" x="1515" y="-2085" />
<rect fill="#84A1AE" height="70" rx="15" width="70" x="1515" y="-2185" />
<rect fill="#84A1AE" height="70" rx="15" width="70" x="1515" y="-2485" />
<rect fill="#84A1AE" height="70" rx="15" width="70" x="1515" y="-2785" />
<rect fill="#84A1AE" height="70" rx="15" width="70" x="1515" y="-2985" />
<rect fill="#84A1AE" height="70" rx="15" width="70" x="1515" y="-3085" />
<rect fill="#84A1AE" height="70" rx="15" width="70" x="1515" y="-3285" />
<rect fill="#84A1AE" height="70" rx="15" width="70" x="1515" y="-3385" />
<rect fill="#84A1AE" height="70" rx="15" width="70" x="1615" y="-285" />
<rect fill="#84A1AE" height="70" rx="15" width="70" x="1615" y="-385" />
<rect fill="#84A1AE" height="70" rx="15" width="70" x="1615" y="-1585" />
<rect fill="#84A1AE" height="70" rx="15" width="70" x="1615" y="-2285" />
<rect fill="#84A1AE" height="70" rx="15" width="70" x="1615" y="-2985" />
<rect fill="#84A1AE" height="70" rx="15" width="70" x="1615" y="-3385" />
<rect fill="#84A1AE" height="70" rx="15" width="70" x="1715" y="-285" />
<rect fill="#84A1AE" height="70" rx="15" width="70" x="1715" y="-585" />
<rect fill="#84A1AE" height="70" rx="15" width="70" x="1715" y="-785" />
<rect fill="#84A1AE" height="70" rx="15" width="70" x="1715" y="-1185" />
<rect fill="#84A1AE" height="70" rx="15" width="70" x="1715" y="-1285" />
<rect fill="#84A1AE" height="70" rx="15" width="70" x="1715" y="-1885" />
<rect fill="#84A1AE" height="70" rx="15" width="70" x="1715" y="-2585" />
<rect fill="#84A1AE" height="70" rx="15" width="70" x="1715" y="-2685" />
<rect fill="#84A1AE" height="70" rx="15" width="70" x="1715" y="-3385" />
<rect fill="#84A1AE" height="70" rx="15" width="70" x="1815" y="-285" />
<rect fill="#84A1AE" height="70" rx="15" width="70" x="1815" y="-785" />
<rect fill="#84A1AE" height="70" rx="15" width="70" x="1815" y="-985" />
<rect fill="#84A1AE" height="70" rx="15" width="70" x="1815" y="-1285" />
<rect fill="#84A1AE" height="70" rx="15" width="70" x="1815" y="-1685" />
<rect fill="#84A1AE" height="70" rx="15" width="70" x="1815" y="-2885" />
<rect fill="#84A1AE" height="70" rx="15" width="70" x="1815" y="-2985" />
<rect fill="#84A1AE" height="70" rx="15" width="70" x="1815" y="-3385" />
<rect fill="#84A1AE" height="70" rx="15" width="70" x="1915" y="-285" />
<rect fill="#84A1AE" height="70" rx="15" width="70" x="1915" y="-485" />
<rect fill="#84A1AE" height="70" rx="15" width="70" x="1915" y="-1985" />
<rect fill="#84A1AE" height="70" rx="15" width="70" x="1915" y="-2085" />
<rect fill="#84A1AE" height="70" rx="15" width="70" x="1915" y="-2285" />
<rect fill="#84A1AE" height="70" rx="15" width="70" x="1915" y="-2585" />
<rect fill="#84A1AE" height="70" rx="15" width="70" x="1915" y="-2685" />
<rect fill="#84A1AE" height="70" rx="15" width="70" x="1915" y="-2885" />
<rect fill="#84A1AE" height="70" rx="15" width="70" x="1915" y="-3385" />
<rect fill="#84A1AE" height="70" rx="15" width="70" x="2015" y="-285" />
<rect fill="#84A1AE" height="70" rx="15" width="70" x="2015" y="-685" />
<rect fill="#84A1AE" height="70" rx="15" width="70" x="2015" y="-1085" />
<rect fill="#84A1AE" height="70" rx="15" width="70" x="2015" y="-1385" />
<rect fill="#84A1AE" height="70" rx="15" width="70" x="2015" y="-2185" />
<rect fill="#84A1AE" height="70" rx="15" width="70" x="2015" y="-2985" />
<rect fill="#84A1AE" height="70" rx="15" width="70" x="2015" y="-3385" />
<rect fill="#84A1AE" height="70" rx="15" width="70" x="2115" y="-285" />
<rect fill="#84A1AE" height="70" rx="15" width="70" x="2115" y="-385" />
<rect fill="#84A1AE" height="70" rx="15" width="70" x="2115" y="-1385" />
<rect fill="#84A1AE" height="70" rx="15" width="70" x="2115" y="-1585" />
<rect fill="#84A1AE" height="70" rx="15" width="70" x="2115" y="-1685" />
<rect fill="#84A1AE" height="70" rx="15" width="70" x="2115" y="-3185" />
<rect fill="#84A1AE" height="70" rx="15" width="70" x="2115" y="-3385" />
<rect fill="#84A1AE" height="70" rx="15" width="70" x="2215" y="-285" />
<rect fill="#84A1AE" height="70" rx="15" width="70" x="2215" y="-385" />
<rect fill="#84A1AE" height="70" rx="15" width="70" x="2215" y="-485" />
<rect fill="#84A1AE" height="70" rx="15" width="70" x="2215" y="-1685" />
<rect fill="#84A1AE" height="70" rx="15" width="70" x="2215" y="-2185" />
<rect fill="#84A1AE" height="70" rx="15" width="70" x="2215" y="-2685" />
<rect fill="#84A1AE" height="70" rx="15" width="70" x="2215" y="-3385" />
<rect fill="#84A1AE" height="70" rx="15" width="70" x="2315" y="-285" />
<rect fill="#84A1AE" height="70" rx="15" width="70" x="2315" y="-885" />
<rect fill="#84A1AE" height="70" rx="15" width="70" x="2315" y="-1085" />
<rect fill="#84A1AE" height="70" rx="15" width="70" x="2315" y="-1185" />
<rect fill="#84A1AE" height="70" rx="15" width="70" x="2315" y="-1385" />
<rect fill="#84A1AE" height="70" rx="15" width="70" x="2315" y="-1585" />
<rect fill="#84A1AE" height="70" rx="15" width="70" x="2315" y="-1685" />
<rect fill="#84A1AE" height="70" rx="15" width="70" x="2315" y="-2285" />
<rect fill="#84A1AE" height="70" rx="15" width="70" x="2315" y="-2485" />
<rect fill="#84A1AE" height="70" rx="15" width="70" x="2315" y="-2585" />
<rect fill="#84A1AE" height="70" rx="15" width="70" x="2315" y="-2685" />
<rect fill="#84A1AE" height="70" rx="15" width="70" x="2315" y="-3385" />
<rect fill="#84A1AE" height="70" rx="15" width="70" x="2415" y="-285" />
<rect fill="#84A1AE" height="70" rx="15" width="70" x="2415" y="-385" />
<rect fill="#84A1AE" height="70" rx="15" width="70" x="2415" y="-1185" />
<rect fill="#84A1AE" height="70" rx="15" width="70" x="2415" y="-1485" />
<rect fill="#84A1AE" height="70" rx="15" width="70" x="2415" y="-1685" />
<rect fill="#84A1AE" height="70" rx="15" width="70" x="2415" y="-1885" />
<rect fill="#84A1AE" height="70" rx="15" width="70" x="2415" y="-3385" />
<rect fill="#84A1AE" height="70" rx="15" width="70" x="2515" y="-285" />
<rect fill="#84A1AE" height="70" rx="15" width="70" x="2515" y="-585" />
<rect fill="#84A1AE" height="70" rx="15" width="70" x="2515" y="-785" />
<rect fill="#84A1AE" height="70" rx="15" width="70" x="2515" y="-1285" />
<rect fill="#84A1AE" height="70" rx="15" width="70" x="2515" y="-1585" />
<rect fill="#84A1AE" height="70" rx="15" width="70" x="2515" y="-1885" />
<rect fill="#84A1AE" height="70" rx="15" width="70" x="2515" y="-3385" />
<rect fill="#84A1AE" height="70" rx="15" width="70" x="2615" y="-285" />
<rect fill="#84A1AE" height="70" rx="15" width="70" x="2615" y="-485" />
<rect fill="#84A1AE" height="70" rx="15" width="70" x="2615" y="-685" />
<rect fill="#84A1AE" height="70" rx="15" width="70" x="2615" y="-2685" />
<rect fill="#84A1AE" height="70" rx="15" width="70" x="2615" y="-2885" />
<rect fill="#84A1AE" height="70" rx="15" width="70" x="2615" y="-3385" />
<rect fill="#84A1AE" height="70" rx="15" width="70" x="2715" y="-285" />
<rect fill="#84A1AE" height="70" rx="15" width="70" x="2715" y="-585" />
<rect fill="#84A1AE" height="70" rx="15" width="70" x="2715" y="-885" />
<rect fill="#84A1AE" height="70" rx="15" width="70" x="2715" y="-1385" />
<rect fill="#84A1AE" height="70" rx="15" width="70" x="2715" y="-1485" />
<rect fill="#84A1AE" height="70" rx="15" width="70" x="2715" y="-2185" />
<rect fill="#84A1AE" height="70" rx="15" width="70" x="2715" y="-2885" />
<rect fill="#84A1AE" height="70" rx="15" width="70" x="2715" y="-3085" />
<rect fill="#84A1AE" height="70" rx="15" width="70" x="2715" y="-3185" />
<rect fill="#84A1AE" height="70" rx="15" width="70" x="2715" y="-3285" />
<rect fill="#84A1AE" height="70" rx="15" width="70" x="2715" y="-3385" />
<rect fill="#84A1AE" height="70" rx="15" width="70" x="2815" y="-285" />
<rect fill="#84A1AE" height="70" rx="15" width="70" x="2815" y="-585" />
<rect fill="#84A1AE" height="70" rx="15" width="70" x="2815" y="-1585" />
<rect fill="#84A1AE" height="70" rx="15" width="70" x="2815" y="-2685" />
<rect fill="#84A1AE" height="70" rx="15" width="70" x="2815" y="-2785" />
<rect fill="#84A1AE" height="70" rx="15" width="70" x="2815" y="-3385" />
<rect fill="#84A1AE" height="70" rx="15" width="70" x="2915" y="-285" />
<rect fill="#84A1AE" height="70" rx="15" width="70" x="2915" y="-985" />
<rect fill="#84A1AE" height="70" rx="15" width="70" x="2915" y="-1485" />
<rect fill="#84A1AE" height="70" rx="15" width="70" x="2915" y="-1885" />
<rect fill="#84A1AE" height="70" rx="15" width="70" x="2915" y="-1985" />
<rect fill="#84A1AE" height="70" rx="15" width="70" x="2915" y="-2285" />
<rect fill="#84A1AE" height="70" rx="15" width="70" x="2915" y="-2385" />
<rect fill="#84A1AE" height="70" rx="15" width="70" x="2915" y="-2785" />
<rect fill="#84A1AE" height="70" rx="15" width="70" x="2915" y="-3285" />
<rect fill="#84A1AE" height="70" rx="15" width="70" x="2915" y="-3385" />
<rect fill="#84A1AE" height="70" rx="15" width="70" x="3015" y="-285" />
<rect fill="#84A1AE" height="70" rx="15" width="70" x="3015" y="-1185" />
<rect fill="#84A1AE" height="70" rx="15" width="70" x="3015" y="-1585" />
<rect fill="#84A1AE" height="70" rx="15" width="70" x="3015" y="-2185" />
<rect fill="#84A1AE" height="70" rx="15" width="70" x="3015" y="-2685" />
<rect fill="#84A1AE" height="70" rx="15" width="70" x="3015" y="-2985" />
<rect fill="#84A1AE" height="70" rx="15" width="70" x="3015" y="-3185" />
<rect fill="#84A1AE" height="70" rx="15" width="70" x="3015" y="-3285" />
<rect fill="#84A1AE" height="70" rx="15" width="70" x="3015" y="-3385" />
<rect fill="#84A1AE" height="70" rx="15" width="70" x="3115" y="-285" />
<rect fill="#84A1AE" height="70" rx="15" width="70" x="3115" y="-485" />
<rect fill="#84A1AE" height="70" rx="15" width="70" x="3115" y="-1685" />
<rect fill="#84A1AE" height="70" rx="15" width="70" x="3115" y="-2085" />
<rect fill="#84A1AE" height="70" rx="15" width="70" x="3115" y="-2185" />
<rect fill="#84A1AE" height="70" rx="15" width="70" x="3115" y="-3385" />
<rect fill="#84A1AE" height="70" rx="15" width="70" x="3215" y="-285" />
<rect fill="#84A1AE" height="70" rx="15" width="70" x="3215" y="-485" />
<rect fill="#84A1AE" height="70" rx="15" width="70" x="3215" y="-785" />
<rect fill="#84A1AE" height="70" rx="15" width="70" x="3215" y="-885" />
<rect fill="#84A1AE" height="70" rx="15" width="70" x="3215" y="-1785" />
<rect fill="#84A1AE" height="70" rx="15" width="70" x="3215" y="-1885" />
<rect fill="#84A1AE" height="70" rx="15" width="70" x="3215" y="-2285" />
<rect fill="#84A1AE" height="70" rx="15" width="70" x="3215" y="-3185" />
<rect fill="#84A1AE" height="70" rx="15" width="70" x="3215" y="-3385" />
<rect fill="#84A1AE" height="70" rx="15" width="70" x="3315" y="-285" />
<rect fill="#84A1AE" height="70" rx="15" width="70" x="3315" y="-385" />
<rect fill="#84A1AE" height="70" rx="15" width="70" x="3315" y="-485" />
<rect fill="#84A1AE" height="70" rx="15" width="70" x="3315" y="-585" />
<rect fill="#84A1AE" height="70" rx="15" width="70" x="3315" y="-685" />
<rect fill="#84A1AE" height="70" rx="15" width="70" x="3315" y="-785" />
<rect fill="#84A1AE" height="70" rx="15" width="70" x="3315" y="-885" />
<rect fill="#84A1AE" height="70" rx="15" width="70" x="3315" y="-985" />
<rect fill="#84A1AE" height="70" rx="15" width="70" x="3315" y="-1085" />
<rect fill="#84A1AE" height="70" rx="15" width="70" x="3315" y="-1185" />
<rect fill="#84A1AE" height="70" rx="15" width="70" x="3315" y="-1285" />
<rect fill="#84A1AE" height="70" rx="15" width="70" x="3315" y="-1385" />
<rect fill="#84A1AE" height="70" rx="15" width="70" x="3315" y="-1485" />
<rect fill="#84A1AE" height="70" rx="15" width="70" x="3315" y="-1585" />
<rect fill="#84A1AE" height="70" rx="15" width="70" x="3315" y="-1685" />
<rect fill="#84A1AE" height="70" rx="15" width="70" x="3315" y="-1785" />
<rect fill="#84A1AE" height="70" rx="15" width="70" x="3315" y="-1885" />
<rect fill="#84A1AE" height="70" rx="15" width="70" x="3315" y="-1985" />
<rect fill="#84A1AE" height="70" rx="15" width="70" x="3315" y="-2085" />
<rect fill="#84A1AE" height="70" rx="15" width="70" x="3315" y="-2185" />
<rect fill="#84A1AE" height="70" rx="15" width="70" x="3315" y="-2285" />
<rect fill="#84A1AE" height="70" rx="15" width="70" x="3315" y="-2385" />
<rect fill="#84A1AE" height="70" rx="15" width="70" x="3315" y="-2485" />
<rect fill="#84A1AE" height="70" rx="15" width="70" x="3315" y="-2585" />
<rect fill="#84A1AE" height="70" rx="15" width="70" x="3315" y="-2685" />
<rect fill="#84A1AE" height="70" rx="15" width="70" x="3315" y="-2785" />
<rect fill="#84A1AE" height="70" rx="15" width="70" x="3315" y="-2885" />
<rect fill="#84A1AE" height="70" rx="15" width="70" x="3315" y="-2985" />
<rect fill="#84A1AE" height="70" rx="15" width="70" x="3315" y="-3085" />
<rect fill="#84A1AE" height="70" rx="15" width="70" x="3315" y="-3185" />
<rect fill="#84A1AE" height="70" rx="15" width="70" x="3315" y="-3285" />
<rect fill="#84A1AE" height="70" rx="15" width="70" x="3315" y="-3385" />
<circle cx="1450" cy="-3050" fill="#c1433c" r="35"> <animate attributeName="cy" dur="12.32s" keyTimes="0.0;0.0222222222;0.0444444444;0.0666666667;0.0888888889;0.1111111111;0.1555555556;0.1777777778;0.2;0.2444444444;0.2666666667;0.2888888889;0.3111111111;0.3333333333;0.3555555556;0.3777777778;0.4;0.4222222222;0.5111111111;0.5333333333;0.5555555556;0.5777777778;0.6;0.6222222222;0.6444444444;0.6666666667;0.6888888889;0.7111111111;0.7333333333;0.7555555556;0.7777777778;1.0" repeatCount="indefinite" values="-3050;-3050;-3050;-2950;-2850;-2750;-2750;-2650;-2550;-2550;-2450;-2350;-2250;-2150;-2050;-1950;-1850;-1750;-1750;-1650;-1550;-1450;-1350;-1250;-1150;-1050;-950;-850;-750;-650;-550;-550"/>
<animate attributeName="cx" dur="12.32s" keyTimes="0.0;0.0222222222;0.0444444444;0.1111111111;0.1333333333;0.1555555556;0.2;0.2222222222;0.2444444444;0.4444444444;0.4666666667;0.4888888889;0.5111111111;1.0" repeatCount="indefinite" values="1450;1450;1350;1350;1250;1150;1150;1250;1350;1350;1450;1450;1350;1350"/>
<animate attributeName="visibility" dur="12.32s" keyTimes="0.0;0.0222222222;0.7555555556;0.7777777778;1.0" repeatCount="indefinite" values="visible;visible;visible;hidden;hidden"/> </circle>
<circle cx="750" cy="-2650" fill="#2e6f9e" r="35"> <animate attributeName="cy" dur="12.32s" keyTimes="0.0;0.0222222222;0.0444444444;0.0666666667;0.0888888889;0.1111111111;0.1333333333;0.1555555556;0.1777777778;0.2;0.2222222222;0.2444444444;0.3111111111;0.3333333333;0.3555555556;0.4888888889;0.5111111111;0.5333333333;0.5555555556;0.5777777778;0.6;1.0" repeatCount="indefinite" values="-2650;-2650;-2550;-2550;-2450;-2350;-2250;-2250;-2150;-2050;-2050;-1950;-1950;-1850;-1750;-1750;-1650;-1550;-1450;-1350;-1250;-1250"/>
<animate attributeName="cx" dur="12.32s" keyTimes="0.0;0.0222222222;0.0444444444;0.0666666667;0.1333333333;0.1555555556;0.2;0.2222222222;0.2444444444;0.2666666667;0.2888888889;0.3111111111;0.3555555556;0.3777777778;0.4;0.4222222222;0.4444444444;0.4666666667;0.4888888889;0.6;0.6222222222;1.0" repeatCount="indefinite" values="750;750;750;850;850;950;950;1050;1050;1150;1250;1350;1350;1450;1550;1650;1750;1850;1950;1950;2050;2050"/>
<animate attributeName="visibility" dur="12.32s" keyTimes="0.0;0.0222222222;0.6;0.6222222222;1.0" repeatCount="indefinite" values="visible;visible;visible;hidden;hidden"/> </circle>
<circle cx="2350" cy="-1950" fill="#6e81af" r="35"> <animate attributeName="cy" dur="12.32s" keyTimes="0.0;0.0222222222;0.0666666667;0.0888888889;0.1111111111;0.1333333333;0.1555555556;0.1777777778;0.2222222222;0.2444444444;0.2666666667;0.2888888889;0.3111111111;0.3333333333;0.3555555556;0.3777777778;0.4;0.4222222222;0.4444444444;1.0" repeatCount="indefinite" values="-1950;-1950;-1950;-2050;-2150;-2250;-2250;-2350;-2350;-2450;-2550;-2650;-2750;-2750;-2850;-2950;-3050;-3050;-3150;-3150"/>
<animate attributeName="cx" dur="12.32s" keyTimes="0.0;0.0222222222;0.0444444444;0.0666666667;0.1333333333;0.1555555556;0.1777777778;0.2;0.2222222222;0.3111111111;0.3333333333;0.4;0.4222222222;1.0" repeatCount="indefinite" values="2350;2350;2250;2150;2150;2050;2050;1950;1850;1850;1750;1750;1650;1650"/>
<animate attributeName="visibility" dur="12.32s" keyTimes="0.0;0.0222222222;0.4222222222;0.4444444444;1.0" repeatCount="indefinite" values="visible;visible;visible;hidden;hidden"/> </circle>
<circle cx="1350" cy="-2350" fill="#00b9c8" r="35"> <animate attributeName="cy" dur="12.32s" keyTimes="0.0;0.0222222222;0.2222222222;0.2444444444;0.2666666667;0.2888888889;0.3111111111;0.3333333333;0.3555555556;0.4666666667;0.4888888889;1.0" repeatCount="indefinite" values="-2350;-2350;-2350;-2250;-2150;-2050;-2050;-1950;-1850;-1850;-1750;-1750"/>
<animate attributeName="cx" dur="12.32s" keyTimes="0.0;0.0222222222;0.0444444444;0.0666666667;0.0888888889;0.1111111111;0.1333333333;0.1555555556;0.1777777778;0.2;0.2888888889;0.3111111111;0.3555555556;0.3777777778;0.4;0.4222222222;0.4444444444;0.4666666667;0.4888888889;0.5111111111;0.5333333333;0.5555555556;0.5777777778;1.0" repeatCount="indefinite" values="1350;1350;1450;1550;1550;1650;1650;1550;1650;1750;1750;1850;1850;1950;2050;2150;2250;2350;2350;2450;2550;2650;2750;2750"/>
<animate attributeName="visibility" dur="12.32s" keyTimes="0.0;0.0222222222;0.5555555556;0.5777777778;1.0" repeatCount="indefinite" values="visible;visible;visible;hidden;hidden"/> </circle>
<circle cx="1550" cy="-550" fill="#72D5C8" r="35"> <animate attributeName="cy" dur="12.32s" keyTimes="0.0;0.0222222222;0.0444444444;0.0666666667;0.0888888889;0.1111111111;0.1333333333;0.1555555556;0.1777777778;0.2;0.2222222222;0.2444444444;0.2666666667;0.2888888889;0.3111111111;0.3333333333;0.3555555556;0.3777777778;0.4222222222;0.4444444444;1.0" repeatCount="indefinite" values="-550;-550;-650;-750;-850;-950;-1050;-1150;-1150;-1250;-1350;-1450;-1450;-1550;-1650;-1750;-1750;-1850;-1850;-1950;-1950"/>
<animate attributeName="cx" dur="12.32s" keyTimes="0.0;0.0222222222;0.1555555556;0.1777777778;0.2444444444;0.2666666667;0.3333333333;0.3555555556;0.3777777778;0.4;0.4222222222;0.4444444444;0.4666666667;0.4888888889;0.5111111111;0.5333333333;0.5555555556;1.0" repeatCount="indefinite" values="1550;1550;1550;1650;1650;1750;1750;1850;1850;1950;2050;2050;2150;2250;2350;2450;2550;2550"/>
<animate attributeName="visibility" dur="12.32s" keyTimes="0.0;0.0222222222;0.5333333333;0.5555555556;1.0" repeatCount="indefinite" values="visible;visible;visible;hidden;hidden"/> </circle>
<circle cx="1350" cy="-650" fill="#0ea08c" r="35"> <animate attributeName="cy" dur="12.32s" keyTimes="0.0;0.0222222222;0.0444444444;0.0666666667;0.0888888889;0.1111111111;0.1333333333;0.1555555556;0.1777777778;0.2;0.2222222222;0.3333333333;0.3555555556;0.3777777778;0.4;0.4222222222;0.4444444444;0.4666666667;0.4888888889;0.5111111111;0.5333333333;0.5555555556;0.5777777778;0.6;0.6222222222;0.6444444444;0.6888888889;0.7111111111;0.7333333333;0.7777777778;0.8;0.8222222222;1.0" repeatCount="indefinite" values="-650;-650;-750;-850;-950;-1050;-1150;-1250;-1350;-1450;-1550;-1550;-1450;-1450;-1550;-1650;-1650;-1750;-1850;-1950;-2050;-2150;-2250;-2350;-2450;-2550;-2550;-2650;-2750;-2750;-2850;-2950;-2950"/>
<animate attributeName="cx" dur="12.32s" keyTimes="0.0;0.0222222222;0.2444444444;0.2666666667;0.2888888889;0.6444444444;0.6666666667;0.6888888889;0.7333333333;0.7555555556;0.7777777778;0.8222222222;0.8444444444;1.0" repeatCount="indefinite" values="1350;1350;1350;1450;1350;1350;1250;1150;1150;1250;1350;1350;1450;1450"/>
<animate attributeName="visibility" dur="12.32s" keyTimes="0.0;0.0222222222;0.8222222222;0.8444444444;1.0" repeatCount="indefinite" values="visible;visible;visible;hidden;hidden"/> </circle>
<circle cx="1750" cy="-2350" fill="#8F7B66" r="35"> <animate attributeName="cy" dur="12.32s" keyTimes="0.0;0.0222222222;0.1333333333;0.1555555556;0.1777777778;0.2;0.2222222222;0.2444444444;0.6222222222;0.6444444444;0.7555555556;0.7777777778;0.8;0.8222222222;0.8444444444;0.8666666667;0.8888888889;0.9111111111;0.9333333333;0.9555555556;0.9777777778;1.0" repeatCount="indefinite" values="-2350;-2350;-2350;-2250;-2150;-2150;-2050;-1950;-1950;-1850;-1850;-1750;-1650;-1550;-1450;-1350;-1250;-1150;-1050;-950;-850;-850"/>
<animate attributeName="cx" dur="12.32s" keyTimes="0.0;0.0222222222;0.0444444444;0.0666666667;0.0888888889;0.1777777778;0.2;0.2444444444;0.2666666667;0.2888888889;0.4444444444;0.4666666667;0.4888888889;0.5111111111;0.5333333333;0.5555555556;0.5777777778;0.6;0.6222222222;0.6444444444;0.6666666667;0.6888888889;0.7111111111;0.7333333333;0.7555555556;1.0" repeatCount="indefinite" values="1750;1750;1650;1650;1750;1750;1650;1650;1550;1450;1450;1550;1450;1450;1350;1250;1150;1050;950;950;850;750;650;550;450;450"/>
<animate attributeName="visibility" dur="12.32s" keyTimes="0.0;0.0222222222;0.9555555556;0.9777777778;1.0" repeatCount="indefinite" values="visible;visible;visible;hidden;hidden"/> </circle>
<circle cx="1150" cy="-2250" fill="#c1433c" r="35"> <animate attributeName="cy" dur="12.32s" keyTimes="0.0;0.0222222222;0.0444444444;0.0666666667;0.0888888889;0.1111111111;0.1333333333;0.1555555556;0.1777777778;0.2;0.2888888889;0.3111111111;0.3333333333;0.3555555556;0.3777777778;0.4;0.4222222222;0.4666666667;0.4888888889;0.5111111111;0.5333333333;1.0" repeatCount="indefinite" values="-2250;-2250;-2250;-2150;-2050;-2050;-1950;-1850;-1750;-1650;-1650;-1750;-1650;-1550;-1550;-1450;-1350;-1350;-1250;-1150;-1050;-1050"/>
<animate attributeName="cx" dur="12.32s" keyTimes="0.0;0.0222222222;0.0444444444;0.0888888889;0.1111111111;0.3555555556;0.3777777778;0.4222222222;0.4444444444;0.4666666667;0.5333333333;0.5555555556;0.5777777778;1.0" repeatCount="indefinite" values="1150;1150;1250;1250;1350;1350;1450;1450;1550;1650;1650;1750;1850;1850"/>
<animate attributeName="visibility" dur="12.32s" keyTimes="0.0;0.0222222222;0.5555555556;0.5777777778;1.0" repeatCount="indefinite" values="visible;visible;visible;hidden;hidden"/> </circle>
<circle cx="1050" cy="-3050" fill="#2e6f9e" r="35"> <animate attributeName="cy" dur="12.32s" keyTimes="0.0;0.0222222222;0.0888888889;0.1111111111;0.1333333333;0.1555555556;0.2;0.2222222222;0.2444444444;0.2888888889;0.3111111111;0.3333333333;0.3555555556;0.4;0.4222222222;0.4666666667;0.4888888889;1.0" repeatCount="indefinite" values="-3050;-3050;-3050;-2950;-2850;-2750;-2750;-2650;-2550;-2550;-2450;-2450;-2350;-2350;-2450;-2450;-2550;-2550"/>
<animate attributeName="cx" dur="12.32s" keyTimes="0.0;0.0222222222;0.0444444444;0.0666666667;0.0888888889;0.1555555556;0.1777777778;0.2;0.2444444444;0.2666666667;0.2888888889;0.3111111111;0.3333333333;0.3555555556;0.3777777778;0.4;0.4222222222;0.4444444444;0.4666666667;1.0" repeatCount="indefinite" values="1050;1050;1150;1250;1350;1350;1250;1150;1150;1250;1350;1350;1450;1450;1550;1650;1650;1750;1850;1850"/>
<animate attributeName="visibility" dur="12.32s" keyTimes="0.0;0.0222222222;0.4666666667;0.4888888889;1.0" repeatCount="indefinite" values="visible;visible;visible;hidden;hidden"/> </circle>
<circle cx="2650" cy="-3050" fill="#6e81af" r="35"> <animate attributeName="cy" dur="12.32s" keyTimes="0.0;0.0222222222;0.0444444444;0.0666666667;0.0888888889;0.1111111111;0.1333333333;0.1555555556;0.1777777778;0.2;0.2222222222;0.2444444444;0.2666666667;0.2888888889;1.0" repeatCount="indefinite" values="-3050;-3050;-2950;-2950;-2850;-2750;-2650;-2550;-2450;-2350;-2250;-2150;-2150;-2050;-2050"/>
<animate attributeName="cx" dur="12.32s" keyTimes="0.0;0.0222222222;0.0444444444;0.0666666667;0.2444444444;0.2666666667;1.0" repeatCount="indefinite" values="2650;2650;2650;2550;2550;2650;2650"/>
<animate attributeName="visibility" dur="12.32s" keyTimes="0.0;0.0222222222;0.2666666667;0.2888888889;1.0" repeatCount="indefinite" values="visible;visible;visible;hidden;hidden"/> </circle>
<circle cx="1350" cy="-550" fill="none" r="35" stroke="#c1433c" stroke-width="10"> <animate attributeName="visibility" dur="12.32s" keyTimes="0.0;0.0222222222;0.7555555556;0.7777777778;1.0" repeatCount="indefinite" values="visible;visible;visible;hidden;hidden"/> </circle>
<circle cx="2050" cy="-1250" fill="none" r="35" stroke="#2e6f9e" stroke-width="10"> <animate attributeName="visibility" dur="12.32s" keyTimes="0.0;0.0222222222;0.6;0.6222222222;1.0" repeatCount="indefinite" values="visible;visible;visible;hidden;hidden"/> </circle>
<circle cx="1650" cy="-3150" fill="none" r="35" stroke="#6e81af" stroke-width="10"> <animate attributeName="visibility" dur="12.32s" keyTimes="0.0;0.0222222222;0.4222222222;0.4444444444;1.0" repeatCount="indefinite" values="visible;visible;visible;hidden;hidden"/> </circle>
<circle cx="2750" cy="-1750" fill="none" r="35" stroke="#00b9c8" stroke-width="10"> <animate attributeName="visibility" dur="12.32s" keyTimes="0.0;0.0222222222;0.5555555556;0.5777777778;1.0" repeatCount="indefinite" values="visible;visible;visible;hidden;hidden"/> </circle>
<circle cx="2550" cy="-1950" fill="none" r="35" stroke="#72D5C8" stroke-width="10"> <animate attributeName="visibility" dur="12.32s" keyTimes="0.0;0.0222222222;0.5333333333;0.5555555556;1.0" repeatCount="indefinite" values="visible;visible;visible;hidden;hidden"/> </circle>
<circle cx="1450" cy="-2950" fill="none" r="35" stroke="#0ea08c" stroke-width="10"> <animate attributeName="visibility" dur="12.32s" keyTimes="0.0;0.0222222222;0.8222222222;0.8444444444;1.0" repeatCount="indefinite" values="visible;visible;visible;hidden;hidden"/> </circle>
<circle cx="450" cy="-850" fill="none" r="35" stroke="#8F7B66" stroke-width="10"> <animate attributeName="visibility" dur="12.32s" keyTimes="0.0;0.0222222222;0.9555555556;0.9777777778;1.0" repeatCount="indefinite" values="visible;visible;visible;hidden;hidden"/> </circle>
<circle cx="1850" cy="-1050" fill="none" r="35" stroke="#c1433c" stroke-width="10"> <animate attributeName="visibility" dur="12.32s" keyTimes="0.0;0.0222222222;0.5555555556;0.5777777778;1.0" repeatCount="indefinite" values="visible;visible;visible;hidden;hidden"/> </circle>
<circle cx="1850" cy="-2550" fill="none" r="35" stroke="#2e6f9e" stroke-width="10"> <animate attributeName="visibility" dur="12.32s" keyTimes="0.0;0.0222222222;0.4666666667;0.4888888889;1.0" repeatCount="indefinite" values="visible;visible;visible;hidden;hidden"/> </circle>
<circle cx="2650" cy="-2050" fill="none" r="35" stroke="#6e81af" stroke-width="10"> <animate attributeName="visibility" dur="12.32s" keyTimes="0.0;0.0222222222;0.2666666667;0.2888888889;1.0" repeatCount="indefinite" values="visible;visible;visible;hidden;hidden"/> </circle>
</svg>