<?xml version="1.0" encoding="UTF-8"?>
        <svg xmlns="http://www.w3.org/2000/svg" xmlns:xlink="http://www.w3.org/1999/xlink"
             width="360" height="360" viewBox="0 -3600 3600 3600">

<defs>

</defs>

<rect fill="#84A1AE" height="70" rx="15" width="70" x="215" y="-285" />
<rect fill="#84A1AE" height="70" rx="15" width="70" x="215" y="-385" />
<rect fill="#84A1AE" height="70" rx="15" width="70" x="215" y="-485" />
<rect fill="#84A1AE" height="70" rx="15" width="70" x="215" y="-585" />
<rect fill="#84A1AE" height="70" rx="15" width="70" x="215" y="-685" />
<rect fill="#84A1AE" height="70" rx="15" width="70" x="215" y="-785" />
<rect fill="#84A1AE" height="70" rx="15" width="70" x="215" y="-885" />
<rect fill="#84A1AE" height="70" rx="15" width="70" x="215" y="-985" />
<rect fill="#84A1AE" height="70" rx="15" width="70" x="215" y="-1085" />
<rect fill="#84A1AE" height="70" rx="15" width="70" x="215" y="-1185" />
<rect fill="#84A1AE" height="70" rx="15" width="70" x="215" y="-1285" />
<rect fill="#84A1AE" height="70" rx="15" width="70" x="215" y="-1385" />
<rect fill="#84A1AE" height="70" rx="15" width="70" x="215" y="-1485" />
<rect fill="#84A1AE" height="70" rx="15" width="70" x="215" y="-1585" />
<rect fill="#84A1AE" height="70" rx="15" width="70" x="215" y="-1685" />
<rect fill="#84A1AE" height="70" rx="15" width="70" x="215" y="-1785" />
<rect fill="#84A1AE" height="70" rx="15" width="70" x="215" y="-1885" />
<rect fill="#84A1AE" height="70" rx="15" width="70" x="215" y="-1985" />
<rect fill="#84A1AE" height="70" rx="15" width="70" x="215" y="-2085" />
<rect fill="#84A1AE" height="70" rx="15" width="70" x="215" y="-2185" />
<rect fill="#84A1AE" height="70" rx="15" width="70" x="215" y="-2285" />
<rect fill="#84A1AE" height="70" rx="15" width="70" x="215" y="-2385" />
<rect fill="#84A1AE" height="70" rx="15" width="70" x="215" y="-2485" />
<rect fill="#84A1AE" height="70" rx="15" width="70" x="215" y="-2585" />
<rect fill="#84A1AE" height="70" rx="15" width="70" x="215" y="-2685" />
<rect fill="#84A1AE" height="70" rx="15" width="70" x="215" y="-2785" />
<rect fill="#84A1AE" height="70" rx="15" width="70" x="215" y="-2885" />
<rect fill="#84A1AE" height="70" rx="15" width="70" x="215" y="-2985" />
<rect fill="#84A1AE" height="70" rx="15" width="70" x="215" y="-3085" />
<rect fill="#84A1AE" height="70" rx="15" width="70" x="215" y="-3185" />
<rect fill="#84A1AE" height="70" rx="15" width="70" x="215" y="-3285" />
<rect fill="#84A1AE" height="70" rx="15" width="70" x="215" y="-3385" />
<rect fill="#84A1AE" height="70" rx="15" width="70" x="315" y="-285" />
<rect fill="#84A1AE" height="70" rx="15" width="70" x="315" y="-885" />
<rect fill="#84A1AE" height="70" rx="15" width="70" x="315" y="-985" />
<rect fill="#84A1AE" height="70" rx="15" width="70" x="315" y="-1285" />
<rect fill="#84A1AE" height="70" rx="15" width="70" x="315" y="-2585" />
<rect fill="#84A1AE" height="70" rx="15" width="70" x="315" y="-3385" />
<rect fill="#84A1AE" height="70" rx="15" width="70" x="415" y="-285" />
<rect fill="#84A1AE" height="70" rx="15" width="70" x="415" y="-985" />
<rect fill="#84A1AE" height="70" rx="15" width="70" x="415" y="-1185" />
<rect fill="#84A1AE" height="70" rx="15" width="70" x="415" y="-1385" />
<rect fill="#84A1AE" height="70" rx="15" width="70" x="415" y="-1985" />
<rect fill="#84A1AE" height="70" rx="15" width="70" x="415" y="-2285" />
<rect fill="#84A1AE" height="70" rx="15" width="70" x="415" y="-2985" />
<rect fill="#84A1AE" height="70" rx="15" width="70" x="415" y="-3185" />
<rect fill="#84A1AE" height="70" rx="15" width="70" x="415" y="-3285" />
<rect fill="#84A1AE" height="70" rx="15" width="70" x="415" y="-3385" />
<rect fill="#84A1AE" height="70" rx="15" width="70" x="515" y="-285" />
<rect fill="#84A1AE" height="70" rx="15" width="70" x="515" y="-885" />
<rect fill="#84A1AE" height="70" rx="15" width="70" x="515" y="-1085" />
<rect fill="#84A1AE" height="70" rx="15" width="70" x="515" y="-1385" />
<rect fill="#84A1AE" height="70" rx="15" width="70" x="515" y="-1585" />
<rect fill="#84A1AE" height="70" rx="15" width="70" x="515" y="-1885" />
<rect fill="#84A1AE" height="70" rx="15" width="70" x="515" y="-2185" />
<rect fill="#84A1AE" height="70" rx="15" width="70" x="515" y="-3385" />
<rect fill="#84A1AE" height="70" rx="15" width="70" x="615" y="-285" />
<rect fill="#84A1AE" height="70" rx="15" width="70" x="615" y="-1385" />
<rect fill="#84A1AE" height="70" rx="15" width="70" x="615" y="-1485" />
<rect fill="#84A1AE" height="70" rx="15" width="70" x="615" y="-1585" />
<rect fill="#84A1AE" height="70" rx="15" width="70" x="615" y="-1685" />
<rect fill="#84A1AE" height="70" rx="15" width="70" x="615" y="-2085" />
<rect fill="#84A1AE" height="70" rx="15" width="70" x="615" y="-2385" />
<rect fill="#84A1AE" height="70" rx="15" width="70" x="615" y="-2785" />
<rect fill="#84A1AE" height="70" rx="15" width="70" x="615" y="-2885" />
<rect fill="#84A1AE" height="70" rx="15" width="70" x="615" y="-3085" />
<rect fill="#84A1AE" height="70" rx="15" width="70" x="615" y="-3385" />
<rect fill="#84A1AE" height="70" rx="15" width="70" x="715" y="-285" />
<rect fill="#84A1AE" height="70" rx="15" width="70" x="715" y="-685" />
<rect fill="#84A1AE" height="70" rx="15" width="70" x="715" y="-885" />
<rect fill="#84A1AE" height="70" rx="15" width="70" x="715" y="-1385" />
<rect fill="#84A1AE" height="70" rx="15" width="70" x="715" y="-1685" />
<rect fill="#84A1AE" height="70" rx="15" width="70" x="715" y="-1985" />
<rect fill="#84A1AE" height="70" rx="15" width="70" x="715" y="-2685" />
<rect fill="#84A1AE" height="70" rx="15" width="70" x="715" y="-2785" />
<rect fill="#84A1AE" height="70" rx="15" width="70" x="715" y="-2985" />
<rect fill="#84A1AE" height="70" rx="15" width="70" x="715" y="-3185" />
<rect fill="#84A1AE" height="70" rx="15" width="70" x="715" y="-3385" />
<rect fill="#84A1AE" height="70" rx="15" width="70" x="815" y="-285" />
<rect fill="#84A1AE" height="70" rx="15" width="70" x="815" y="-885" />
<rect fill="#84A1AE" height="70" rx="15" width="70" x="815" y="-1485" />
<rect fill="#84A1AE" height="70" rx="15" width="70" x="815" y="-1985" />
<rect fill="#84A1AE" height="70" rx="15" width="70" x="815" y="-2885" />
<rect fill="#84A1AE" height="70" rx="15" width="70" x="815" y="-3385" />
<rect fill="#84A1AE" height="70" rx="15" width="70" x="915" y="-285" />
<rect fill="#84A1AE" height="70" rx="15" width="70" x="915" y="-485" />
<rect fill="#84A1AE" height="70" rx="15" width="70" x="915" y="-885" />
<rect fill="#84A1AE" height="70" rx="15" width="70" x="915" y="-1585" />
<rect fill="#84A1AE" height="70" rx="15" width="70" x="915" y="-1685" />
<rect fill="#84A1AE" height="70" rx="15" width="70" x="915" y="-1885" />
<rect fill="#84A1AE" height="70" rx="15" width="70" x="915" y="-2285" />
<rect fill="#84A1AE" height="70" rx="15" width="70" x="915" y="-2685" />
<rect fill="#84A1AE" height="70" rx="15" width="70" x="915" y="-2785" />
<rect fill="#84A1AE" height="70" rx="15" width="70" x="915" y="-3385" />
<rect fill="#84A1AE" height="70" rx="15" width="70" x="1015" y="-285" />
<rect fill="#84A1AE" height="70" rx="15" width="70" x="1015" y="-1085" />
<rect fill="#84A1AE" height="70" rx="15" width="70" x="1015" y="-2585" />
<rect fill="#84A1AE" height="70" rx="15" width="70" x="1015" y="-3185" />
<rect fill="#84A1AE" height="70" rx="15" width="70" x="1015" y="-3285" />
<rect fill="#84A1AE" height="70" rx="15" width="70" x="1015" y="-3385" />
<rect fill="#84A1AE" height="70" rx="15" width="70" x="1115" y="-285" />
<rect fill="#84A1AE" height="70" rx="15" width="70" x="1115" y="-485" />
<rect fill="#84A1AE" height="70" rx="15" width="70" x="1115" y="-1185" />
<rect fill="#84A1AE" height="70" rx="15" width="70" x="1115" y="-1285" />
<rect fill="#84A1AE" height="70" rx="15" width="70" x="1115" y="-1385" />
<rect fill="#84A1AE" height="70" rx="15" width="70" x="1115" y="-2485" />
<rect fill="#84A1AE" height="70" rx="15" width="70" x="1115" y="-3385" />
<rect fill="#84A1AE" height="70" rx="15" width="70" x="1215" y="-285" />
<rect fill="#84A1AE" height="70" rx="15" width="70" x="1215" y="-485" />
<rect fill="#84A1AE" height="70" rx="15" width="70" x="1215" y="-1185" />
<rect fill="#84A1AE" height="70" rx="15" width="70" x="1215" y="-1385" />
<rect fill="#84A1AE" height="70" rx="15" width="70" x="1215" y="-1585" />
<rect fill="#84A1AE" height="70" rx="15" width="70" x="1215" y="-1885" />
<rect fill="#84A1AE" height="70" rx="15" width="70" x="1215" y="-2185" />
<rect fill="#84A1AE" height="70" rx="15" width="70" x="1215" y="-2685" />
<rect fill="#84A1AE" height="70" rx="15" width="70" x="1215" y="-3285" />
<rect fill="#84A1AE" height="70" rx="15" width="70" x="1215" y="-3385" />
<rect fill="#84A1AE" height="70" rx="15" width="70" x="1315" y="-285" />
<rect fill="#84A1AE" height="70" rx="15" width="70" x="1315" y="-785" />
<rect fill="#84A1AE" height="70" rx="15" width="70" x="1315" y="-985" />
<rect fill="#84A1AE" height="70" rx="15" width="70" x="1315" y="-3385" />
<rect fill="#84A1AE" height="70" rx="15" width="70" x="1415" y="-285" />
<rect fill="#84A1AE" height="70" rx="15" width="70" x="1415" y="-485" />
<rect fill="#84A1AE" height="70" rx="15" width="70" x="1415" y="-1885" />
<rect fill="#84A1AE" height="70" rx="15" width="70" x="1415" y="-2885" />
<rect fill="#84A1AE" height="70" rx="15" width="70" x="1415" y="-3385" />
<rect fill="#84A1AE" height="70" rx="15" width="70" x="1515" y="-285" />
<rect fill="#84A1AE" height="70" rx="15" width="70" x="1515" y="-1385" />
<rect fill="#84A1AE" height="70" rx="15" width="70" x="1515" y="-1785" />
<rect fill="#84A1AE" height="70" rx="15" width="70" x="1515" y="-2285" />
<rect fill="#84A1AE" height="70" rx="15" width="70" x="1515" y="-2985" />
<rect fill="#84A1AE" height="70" rx="15" width="70" x="1515" y="-3385" />
<rect fill="#84A1AE" height="70" rx="15" width="70" x="1615" y="-285" />
<rect fill="#84A1AE" height="70" rx="15" width="70" x="1615" y="-985" />
<rect fill="#84A1AE" height="70" rx="15" width="70" x="1615" y="-1185" />
<rect fill="#84A1AE" height="70" rx="15" width="70" x="1615" y="-2785" />
<rect fill="#84A1AE" height="70" rx="15" width="70" x="1615" y="-3385" />
<rect fill="#84A1AE" height="70" rx="15" width="70" x="1715" y="-285" />
<rect fill="#84A1AE" height="70" rx="15" width="70" x="1715" y="-985" />
<rect fill="#84A1AE" height="70" rx="15" width="70" x="1715" y="-1085" />
<rect fill="#84A1AE" height="70" rx="15" width="70" x="1715" y="-1185" />
<rect fill="#84A1AE" height="70" rx="15" width="70" x="1715" y="-1885" />
<rect fill="#84A1AE" height="70" rx="15" width="70" x="1715" y="-2985" />
<rect fill="#84A1AE" height="70" rx="15" width="70" x="1715" y="-3285" />
<rect fill="#84A1AE" height="70" rx="15" width="70" x="1715" y="-3385" />
<rect fill="#84A1AE" height="70" rx="15" width="70" x="1815" y="-285" />
<rect fill="#84A1AE" height="70" rx="15" width="70" x="1815" y="-685" />
<rect fill="#84A1AE" height="70" rx="15" width="70" x="1815" y="-1785" />
<rect fill="#84A1AE" height="70" rx="15" width="70" x="1815" y="-2085" />
<rect fill="#84A1AE" height="70" rx="15" width="70" x="1815" y="-2385" />
<rect fill="#84A1AE" height="70" rx="15" width="70" x="1815" y="-3085" />
<rect fill="#84A1AE" height="70" rx="15" width="70" x="1815" y="-3385" />
<rect fill="#84A1AE" height="70" rx="15" width="70" x="1915" y="-285" />
<rect fill="#84A1AE" height="70" rx="15" width="70" x="1915" y="-385" />
<rect fill="#84A1AE" height="70" rx="15" width="70" x="1915" y="-585" />
<rect fill="#84A1AE" height="70" rx="15" width="70" x="1915" y="-1385" />
<rect fill="#84A1AE" height="70" rx="15" width="70" x="1915" y="-2085" />
<rect fill="#84A1AE" height="70" rx="15" width="70" x="1915" y="-2585" />
<rect fill="#84A1AE" height="70" rx="15" width="70" x="1915" y="-2785" />
<rect fill="#84A1AE" height="70" rx="15" width="70" x="1915" y="-2885" />
<rect fill="#84A1AE" height="70" rx="15" width="70" x="1915" y="-3385" />
<rect fill="#84A1AE" height="70" rx="15" width="70" x="2015" y="-285" />
<rect fill="#84A1AE" height="70" rx="15" width="70" x="2015" y="-685" />
<rect fill="#84A1AE" height="70" rx="15" width="70" x="2015" y="-885" />
<rect fill="#84A1AE" height="70" rx="15" width="70" x="2015" y="-1185" />
<rect fill="#84A1AE" height="70" rx="15" width="70" x="2015" y="-1385" />
<rect fill="#84A1AE" height="70" rx="15" width="70" x="2015" y="-1785" />
<rect fill="#84A1AE" height="70" rx="15" width="70" x="2015" y="-1985" />
<rect fill="#84A1AE" height="70" rx="15" width="70" x="2015" y="-2285" />
<rect fill="#84A1AE" height="70" rx="15" width="70" x="2015" y="-2585" />
<rect fill="#84A1AE" height="70" rx="15" width="70" x="2015" y="-2985" />
<rect fill="#84A1AE" height="70" rx="15" width="70" x="2015" y="-3385" />
<rect fill="#84A1AE" height="70" rx="15" width="70" x="2115" y="-285" />
<rect fill="#84A1AE" height="70" rx="15" width="70" x="2115" y="-1685" />
<rect fill="#84A1AE" height="70" rx="15" width="70" x="2115" y="-2585" />
<rect fill="#84A1AE" height="70" rx="15" width="70" x="2115" y="-2685" />
<rect fill="#84A1AE" height="70" rx="15" width="70" x="2115" y="-3385" />
<rect fill="#84A1AE" height="70" rx="15" width="70" x="2215" y="-285" />
<rect fill="#84A1AE" height="70" rx="15" width="70" x="2215" y="-585" />
<rect fill="#84A1AE" height="70" rx="15" width="70" x="2215" y="-1485" />
<rect fill="#84A1AE" height="70" rx="15" width="70" x="2215" y="-2185" />
<rect fill="#84A1AE" height="70" rx="15" width="70" x="2215" y="-2885" />
<rect fill="#84A1AE" height="70" rx="15" width="70" x="2215" y="-2985" />
<rect fill="#84A1AE" height="70" rx="15" width="70" x="2215" y="-3385" />
<rect fill="#84A1AE" height="70" rx="15" width="70" x="2315" y="-285" />
<rect fill="#84A1AE" height="70" rx="15" width="70" x="2315" y="-1085" />
<rect fill="#84A1AE" height="70" rx="15" width="70" x="2315" y="-1385" />
<rect fill="#84A1AE" height="70" rx="15" width="70" x="2315" y="-1685" />
<rect fill="#84A1AE" height="70" rx="15" width="70" x="2315" y="-1985" />
<rect fill="#84A1AE" height="70" rx="15" width="70" x="2315" y="-2185" />
<rect fill="#84A1AE" height="70" rx="15" width="70" x="2315" y="-2285" />
<rect fill="#84A1AE" height="70" rx="15" width="70" x="2315" y="-2985" />
<rect fill="#84A1AE" height="70" rx="15" width="70" x="2315" y="-3385" />
<rect fill="#84A1AE" height="70" rx="15" width="70" x="2415" y="-285" />
<rect fill="#84A1AE" height="70" rx="15" width="70" x="2415" y="-785" />
<rect fill="#84A1AE" height="70" rx="15" width="70" x="2415" y="-885" />
<rect fill="#84A1AE" height="70" rx="15" width="70" x="2415" y="-985" />
<rect fill="#84A1AE" height="70" rx="15" width="70" x="2415" y="-1085" />
<rect fill="#84A1AE" height="70" rx="15" width="70" x="2415" y="-1385" />
<rect fill="#84A1AE" height="70" rx="15" width="70" x="2415" y="-1685" />
<rect fill="#84A1AE" height="70" rx="15" width="70" x="2415" y="-2385" />
<rect fill="#84A1AE" height="70" rx="15" width="70" x="2415" y="-3085" />
<rect fill="#84A1AE" height="70" rx="15" width="70" x="2415" y="-3385" />
<rect fill="#84A1AE" height="70" rx="15" width="70" x="2515" y="-285" />
<rect fill="#84A1AE" height="70" rx="15" width="70" x="2515" y="-385" />
<rect fill="#84A1AE" height="70" rx="15" width="70" x="2515" y="-685" />
<rect fill="#84A1AE" height="70" rx="15" width="70" x="2515" y="-1185" />
<rect fill="#84A1AE" height="70" rx="15" width="70" x="2515" y="-1385" />
<rect fill="#84A1AE" height="70" rx="15" width="70" x="2515" y="-3285" />
<rect fill="#84A1AE" height="70" rx="15" width="70" x="2515" y="-3385" />
<rect fill="#84A1AE" height="70" rx="15" width="70" x="2615" y="-285" />
<rect fill="#84A1AE" height="70" rx="15" width="70" x="2615" y="-485" />
<rect fill="#84A1AE" height="70" rx="15" width="70" x="2615" y="-985" />
<rect fill="#84A1AE" height="70" rx="15" width="70" x="2615" y="-1685" />
<rect fill="#84A1AE" height="70" rx="15" width="70" x="2615" y="-1885" />
<rect fill="#84A1AE" height="70" rx="15" width="70" x="2615" y="-2185" />
<rect fill="#84A1AE" height="70" rx="15" width="70" x="2615" y="-2885" />
<rect fill="#84A1AE" height="70" rx="15" width="70" x="2615" y="-3385" />
<rect fill="#84A1AE" height="70" rx="15" width="70" x="2715" y="-285" />
<rect fill="#84A1AE" height="70" rx="15" width="70" x="2715" y="-1385" />
<rect fill="#84A1AE" height="70" rx="15" width="70" x="2715" y="-1585" />
<rect fill="#84A1AE" height="70" rx="15" width="70" x="2715" y="-2485" />
<rect fill="#84A1AE" height="70" rx="15" width="70" x="2715" y="-2585" />
<rect fill="#84A1AE" height="70" rx="15" width="70" x="2715" y="-3385" />
<rect fill="#84A1AE" height="70" rx="15" width="70" x="2815" y="-285" />
<rect fill="#84A1AE" height="70" rx="15" width="70" x="2815" y="-385" />
<rect fill="#84A1AE" height="70" rx="15" width="70" x="2815" y="-585" />
<rect fill="#84A1AE" height="70" rx="15" width="70" x="2815" y="-885" />
<rect fill="#84A1AE" height="70" rx="15" width="70" x="2815" y="-1685" />
<rect fill="#84A1AE" height="70" rx="15" width="70" x="2815" y="-2285" />
<rect fill="#84A1AE" height="70" rx="15" width="70" x="2815" y="-2585" />
<rect fill="#84A1AE" height="70" rx="15" width="70" x="2815" y="-3385" />
<rect fill="#84A1AE" height="70" rx="15" width="70" x="2915" y="-285" />
<rect fill="#84A1AE" height="70" rx="15" width="70" x="2915" y="-1585" />
<rect fill="#84A1AE" height="70" rx="15" width="70" x="2915" y="-1885" />
<rect fill="#84A1AE" height="70" rx="15" width="70" x="2915" y="-1985" />
<rect fill="#84A1AE" height="70" rx="15" width="70" x="2915" y="-2085" />
<rect fill="#84A1AE" height="70" rx="15" width="70" x="2915" y="-2285" />
<rect fill="#84A1AE" height="70" rx="15" width="70" x="2915" y="-3385" />
<rect fill="#84A1AE" height="70" rx="15" width="70" x="3015" y="-285" />
<rect fill="#84A1AE" height="70" rx="15" width="70" x="3015" y="-985" />
<rect fill="#84A1AE" height="70" rx="15" width="70" x="3015" y="-1285" />
<rect fill="#84A1AE" height="70" rx="15" width="70" x="3015" y="-1585" />
<rect fill="#84A1AE" height="70" rx="15" width="70" x="3015" y="-1685" />
<rect fill="#84A1AE" height="70" rx="15" width="70" x="3015" y="-2485" />
<rect fill="#84A1AE" height="70" rx="15" width="70" x="3015" y="-2785" />
<rect fill="#84A1AE" height="70" rx="15" width="70" x="3015" y="-3085" />
<rect fill="#84A1AE" height="70" rx="15" width="70" x="3015" y="-3385" />
<rect fill="#84A1AE" height="70" rx="15" width="70" x="3115" y="-285" />
<rect fill="#84A1AE" height="70" rx="15" width="70" x="3115" y="-485" />
<rect fill="#84A1AE" height="70" rx="15" width="70" x="3115" y="-785" />
<rect fill="#84A1AE" height="70" rx="15" width="70" x="3115" y="-2385" />
<rect fill="#84A1AE" height="70" rx="15" width="70" x="3115" y="-2785" />
<rect fill="#84A1AE" height="70" rx="15" width="70" x="3115" y="-3285" />
<rect fill="#84A1AE" height="70" rx="15" width="70" x="3115" y="-3385" />
<rect fill="#84A1AE" height="70" rx="15" width="70" x="3215" y="-285" />
<rect fill="#84A1AE" height="70" rx="15" width="70" x="3215" y="-385" />
<rect fill="#84A1AE" height="70" rx="15" width="70" x="3215" y="-485" />
<rect fill="#84A1AE" height="70" rx="15" width="70" x="3215" y="-2685" />
<rect fill="#84A1AE" height="70" rx="15" width="70" x="3215" y="-2985" />
<rect fill="#84A1AE" height="70" rx="15" width="70" x="3215" y="-3085" />
<rect fill="#84A1AE" height="70" rx="15" width="70" x="3215" y="-3285" />
<rect fill="#84A1AE" height="70" rx="15" width="70" x="3215" y="-3385" />
<rect fill="#84A1AE" height="70" rx="15" width="70" x="3315" y="-285" />
<rect fill="#84A1AE" height="70" rx="15" width="70" x="3315" y="-385" />
<rect fill="#84A1AE" height="70" rx="15" width="70" x="3315" y="-485" />
<rect fill="#84A1AE" height="70" rx="15" width="70" x="3315" y="-585" />
<rect fill="#84A1AE" height="70" rx="15" width="70" x="3315" y="-685" />
<rect fill="#84A1AE" height="70" rx="15" width="70" x="3315" y="-785" />
<rect fill="#84A1AE" height="70" rx="15" width="70" x="3315" y="-885" />
<rect fill="#84A1AE" height="70" rx="15" width="70" x="3315" y="-985" />
<rect fill="#84A1AE" height="70" rx="15" width="70" x="3315" y="-1085" />
<rect fill="#84A1AE" height="70" rx="15" width="70" x="3315" y="-1185" />
<rect fill="#84A1AE" height="70" rx="15" width="70" x="3315" y="-1285" />
<rect fill="#84A1AE" height="70" rx="15" width="70" x="3315" y="-1385" />
<rect fill="#84A1AE" height="70" rx="15" width="70" x="3315" y="-1485" />
<rect fill="#84A1AE" height="70" rx="15" width="70" x="3315" y="-1585" />
<rect fill="#84A1AE" height="70" rx="15" width="70" x="3315" y="-1685" />
<rect fill="#84A1AE" height="70" rx="15" width="70" x="3315" y="-1785" />
<rect fill="#84A1AE" height="70" rx="15" width="70" x="3315" y="-1885" />
<rect fill="#84A1AE" height="70" rx="15" width="70" x="3315" y="-1985" />
<rect fill="#84A1AE" height="70" rx="15" width="70" x="3315" y="-2085" />
<rect fill="#84A1AE" height="70" rx="15" width="70" x="3315" y="-2185" />
<rect fill="#84A1AE" height="70" rx="15" width="70" x="3315" y="-2285" />
<rect fill="#84A1AE" height="70" rx="15" width="70" x="3315" y="-2385" />
<rect fill="#84A1AE" height="70" rx="15" width="70" x="3315" y="-2485" />
<rect fill="#84A1AE" height="70" rx="15" width="70" x="3315" y="-2585" />
<rect fill="#84A1AE" height="70" rx="15" width="70" x="3315" y="-2685" />
<rect fill="#84A1AE" height="70" rx="15" width="70" x="3315" y="-2785" />
<rect fill="#84A1AE" height="70" rx="15" width="70" x="3315" y="-2885" />
<rect fill="#84A1AE" height="70" rx="15" width="70" x="3315" y="-2985" />
<rect fill="#84A1AE" height="70" rx="15" width="70" x="3315" y="-3085" />
<rect fill="#84A1AE" height="70" rx="15" width="70" x="3315" y="-3185" />
<rect fill="#84A1AE" height="70" rx="15" width="70" x="3315" y="-3285" />
<rect fill="#84A1AE" height="70" rx="15" width="70" x="3315" y="-3385" />
<circle cx="2550" cy="-450" fill="#c1433c" r="35"> <animate attributeName="cy" dur="9.520000000000001s" keyTimes="0.0;0.0285714286;0.3142857143;0.3428571429;0.4571428571;0.4857142857;0.5142857143;0.5428571429;0.5714285714;1.0" repeatCount="indefinite" values="-450;-450;-450;-550;-550;-650;-750;-750;-850;-850"/>
<animate attributeName="cx" dur="9.520000000000001s" keyTimes="0.0;0.0285714286;0.0571428571;0.0857142857;0.1142857143;0.1428571429;0.1714285714;0.2;0.2285714286;0.2571428571;0.2857142857;0.3142857143;0.3428571429;0.3714285714;0.4;0.4285714286;0.4571428571;0.5142857143;0.5428571429;1.0" repeatCount="indefinite" values="2550;2550;2450;2350;2250;2150;2050;1950;1850;1750;1650;1550;1550;1450;1350;1250;1150;1150;1050;1050"/>
<animate attributeName="visibility" dur="9.520000000000001s" keyTimes="0.0;0.0285714286;0.5428571429;0.5714285714;1.0" repeatCount="indefinite" values="visible;visible;visible;hidden;hidden"/> </circle>
<circle cx="850" cy="-750" fill="#2e6f9e" r="35"> <animate attributeName="cy" dur="9.520000000000001s" keyTimes="0.0;0.0285714286;0.0857142857;0.1142857143;0.1428571429;0.1714285714;0.2;0.2285714286;0.2857142857;0.3142857143;0.3428571429;0.3714285714;0.4;0.4285714286;0.4571428571;0.4857142857;0.5142857143;0.5428571429;0.5714285714;0.6;0.6285714286;0.6571428571;0.6857142857;0.7142857143;0.7428571429;1.0" repeatCount="indefinite" values="-750;-750;-750;-850;-950;-1050;-1150;-1250;-1250;-1350;-1350;-1450;-1450;-1550;-1650;-1750;-1850;-1950;-1950;-2050;-2050;-2150;-2250;-2350;-2450;-2450"/>
<animate attributeName="cx" dur="9.520000000000001s" keyTimes="0.0;0.0285714286;0.0571428571;0.0857142857;0.2285714286;0.2571428571;0.2857142857;0.3142857143;0.3428571429;0.3714285714;0.4;0.5428571429;0.5714285714;0.6;0.6285714286;1.0" repeatCount="indefinite" values="850;850;750;650;650;750;850;850;950;950;1050;1050;950;950;850;850"/>
<animate attributeName="visibility" dur="9.520000000000001s" keyTimes="0.0;0.0285714286;0.7142857143;0.7428571429;1.0" repeatCount="indefinite" values="visible;visible;visible;hidden;hidden"/> </circle>
<circle cx="2050" cy="-2050" fill="#6e81af" r="35"> <animate attributeName="cy" dur="9.520000000000001s" keyTimes="0.0;0.0285714286;0.0571428571;0.1714285714;0.2;0.2285714286;0.2571428571;0.4;0.4285714286;0.5142857143;0.5428571429;0.5714285714;0.6;0.6285714286;0.6571428571;0.6857142857;0.7142857143;0.7428571429;1.0" repeatCount="indefinite" values="-2050;-2050;-2150;-2150;-2250;-2350;-2450;-2450;-2550;-2550;-2650;-2750;-2750;-2850;-2850;-2950;-2950;-3050;-3050"/>
<animate attributeName="cx" dur="9.520000000000001s" keyTimes="0.0;0.0285714286;0.0571428571;0.0857142857;0.1142857143;0.1428571429;0.1714285714;0.2857142857;0.3142857143;0.3428571429;0.3714285714;0.4;0.4285714286;0.4571428571;0.4857142857;0.5142857143;0.5714285714;0.6;0.6285714286;0.6571428571;0.6857142857;0.7142857143;1.0" repeatCount="indefinite" values="2050;2050;2050;1950;1850;1750;1650;1650;1750;1650;1550;1450;1450;1350;1250;1150;1150;1050;1050;950;950;850;850"/>
<animate attributeName="visibility" dur="9.520000000000001s" keyTimes="0.0;0.0285714286;0.7142857143;0.7428571429;1.0" repeatCount="indefinite" values="visible;visible;visible;hidden;hidden"/> </circle>
<circle cx="2250" cy="-2450" fill="#00b9c8" r="35"> <animate attributeName="cy" dur="9.520000000000001s" keyTimes="0.0;0.0285714286;0.0571428571;0.0857142857;0.1428571429;0.1714285714;0.2;0.2285714286;0.2571428571;1.0" repeatCount="indefinite" values="-2450;-2450;-2550;-2650;-2650;-2750;-2850;-2850;-2950;-2950"/>
<animate attributeName="cx" dur="9.520000000000001s" keyTimes="0.0;0.0285714286;0.1142857143;0.1428571429;0.2;0.2285714286;0.2571428571;0.2857142857;0.3142857143;0.3428571429;1.0" repeatCount="indefinite" values="2250;2250;2250;2350;2350;2450;2450;2550;2650;2750;2750"/>
<animate attributeName="visibility" dur="9.520000000000001s" keyTimes="0.0;0.0285714286;0.3142857143;0.3428571429;1.0" repeatCount="indefinite" values="visible;visible;visible;hidden;hidden"/> </circle>
<circle cx="1850" cy="-2950" fill="#72D5C8" r="35"> <animate attributeName="cy" dur="9.520000000000001s" keyTimes="0.0;0.0285714286;0.0571428571;0.1428571429;0.1714285714;0.2;0.2285714286;0.2571428571;0.2857142857;0.3142857143;0.3428571429;0.3714285714;0.4;0.4285714286;0.4571428571;0.4857142857;0.5142857143;0.5428571429;0.5714285714;0.6;0.6285714286;0.6571428571;0.6857142857;0.7142857143;0.7428571429;0.7714285714;0.8;0.8285714286;0.8571428571;0.8857142857;0.9142857143;0.9428571429;0.9714285714;1.0" repeatCount="indefinite" values="-2950;-2950;-2850;-2850;-2750;-2650;-2550;-2450;-2350;-2350;-2250;-2150;-2050;-1950;-1950;-1850;-1750;-1650;-1550;-1450;-1350;-1250;-1150;-1150;-1050;-950;-850;-750;-650;-650;-550;-450;-350;-350"/>
<animate attributeName="cx" dur="9.520000000000001s" keyTimes="0.0;0.0285714286;0.0571428571;0.0857142857;0.1142857143;0.1428571429;0.2857142857;0.3142857143;0.4285714286;0.4571428571;0.6857142857;0.7142857143;0.8571428571;0.8857142857;1.0" repeatCount="indefinite" values="1850;1850;1850;1750;1650;1550;1550;1450;1450;1350;1350;1450;1450;1550;1550"/>
<animate attributeName="visibility" dur="9.520000000000001s" keyTimes="0.0;0.0285714286;0.9428571429;0.9714285714;1.0" repeatCount="indefinite" values="visible;visible;visible;hidden;hidden"/> </circle>
<circle cx="650" cy="-2650" fill="#0ea08c" r="35"> <animate attributeName="cy" dur="9.520000000000001s" keyTimes="0.0;0.0285714286;0.0571428571;0.0857142857;0.1142857143;0.1428571429;0.1714285714;0.2;0.2285714286;0.2571428571;0.2857142857;0.3142857143;0.3428571429;1.0" repeatCount="indefinite" values="-2650;-2650;-2550;-2550;-2450;-2350;-2250;-2250;-2150;-2150;-2050;-2050;-1950;-1950"/>
<animate attributeName="cx" dur="9.520000000000001s" keyTimes="0.0;0.0285714286;0.0571428571;0.0857142857;0.1714285714;0.2;0.2285714286;0.2571428571;0.2857142857;0.3142857143;1.0" repeatCount="indefinite" values="650;650;650;750;750;850;850;950;950;1050;1050"/>
<animate attributeName="visibility" dur="9.520000000000001s" keyTimes="0.0;0.0285714286;0.3142857143;0.3428571429;1.0" repeatCount="indefinite" values="visible;visible;visible;hidden;hidden"/> </circle>
<circle cx="1650" cy="-1750" fill="#8F7B66" r="35"> <animate attributeName="cy" dur="9.520000000000001s" keyTimes="0.0;0.0285714286;0.0571428571;0.0857142857;0.1142857143;1.0" repeatCount="indefinite" values="-1750;-1750;-1650;-1550;-1450;-1450"/>
<animate attributeName="cx" dur="9.520000000000001s" keyTimes="0.0;0.0285714286;1.0" repeatCount="indefinite" values="1650;1650;1650"/>
<animate attributeName="visibility" dur="9.520000000000001s" keyTimes="0.0;0.0285714286;0.0857142857;0.1142857143;1.0" repeatCount="indefinite" values="visible;visible;visible;hidden;hidden"/> </circle>
<circle cx="2350" cy="-2850" fill="#c1433c" r="35"> <animate attributeName="cy" dur="9.520000000000001s" keyTimes="0.0;0.0285714286;0.0571428571;0.1428571429;0.1714285714;0.3714285714;0.4;0.4571428571;0.4857142857;1.0" repeatCount="indefinite" values="-2850;-2850;-2750;-2750;-2650;-2650;-2750;-2750;-2850;-2850"/>
<animate attributeName="cx" dur="9.520000000000001s" keyTimes="0.0;0.0285714286;0.0571428571;0.0857142857;0.1142857143;0.1428571429;0.1714285714;0.2;0.2285714286;0.2571428571;0.2857142857;0.3142857143;0.3428571429;0.3714285714;0.4;0.4285714286;0.4571428571;1.0" repeatCount="indefinite" values="2350;2350;2350;2250;2150;2050;2050;1950;1850;1750;1650;1550;1450;1350;1350;1250;1150;1150"/>
<animate attributeName="visibility" dur="9.520000000000001s" keyTimes="0.0;0.0285714286;0.4571428571;0.4857142857;1.0" repeatCount="indefinite" values="visible;visible;visible;hidden;hidden"/> </circle>
<circle cx="1550" cy="-1250" fill="#2e6f9e" r="35"> <animate attributeName="cy" dur="9.520000000000001s" keyTimes="0.0;0.0285714286;0.3428571429;0.3714285714;1.0" repeatCount="indefinite" values="-1250;-1250;-1250;-1150;-1150"/>
<animate attributeName="cx" dur="9.520000000000001s" keyTimes="0.0;0.0285714286;0.0571428571;0.0857142857;0.1142857143;0.1428571429;0.1714285714;0.2;0.2285714286;0.2571428571;0.2857142857;0.3142857143;0.3428571429;1.0" repeatCount="indefinite" values="1550;1550;1650;1750;1850;1950;2050;2150;2250;2350;2450;2550;2650;2650"/>
<animate attributeName="visibility" dur="9.520000000000001s" keyTimes="0.0;0.0285714286;0.3428571429;0.3714285714;1.0" repeatCount="indefinite" values="visible;visible;visible;hidden;hidden"/> </circle>
<circle cx="450" cy="-2850" fill="#6e81af" r="35"> <animate attributeName="cy" dur="9.520000000000001s" keyTimes="0.0;0.0285714286;0.0571428571;0.0857142857;0.1142857143;0.1428571429;0.1714285714;0.2;0.2857142857;0.3142857143;0.3428571429;0.4;0.4285714286;1.0" repeatCount="indefinite" values="-2850;-2850;-2850;-2950;-3050;-3150;-3150;-3250;-3250;-3150;-3050;-3050;-3150;-3150"/>
<animate attributeName="cx" dur="9.520000000000001s" keyTimes="0.0;0.0285714286;0.0571428571;0.1428571429;0.1714285714;0.2;0.2285714286;0.2571428571;0.2857142857;0.3428571429;0.3714285714;0.4;0.4285714286;0.4571428571;0.4857142857;0.5142857143;0.5428571429;0.5714285714;1.0" repeatCount="indefinite" values="450;450;550;550;650;650;750;850;950;950;1050;1150;1150;1250;1350;1450;1550;1650;1650"/>
<animate attributeName="visibility" dur="9.520000000000001s" keyTimes="0.0;0.0285714286;0.5428571429;0.5714285714;1.0" repeatCount="indefinite" values="visible;visible;visible;hidden;hidden"/> </circle>
<circle cx="1050" cy="-850" fill="none" r="35" stroke="#c1433c" stroke-width="10"> <animate attributeName="visibility" dur="9.520000000000001s" keyTimes="0.0;0.0285714286;0.5428571429;0.5714285714;1.0" repeatCount="indefinite" values="visible;visible;visible;hidden;hidden"/> </circle>
<circle cx="850" cy="-2450" fill="none" r="35" stroke="#2e6f9e" stroke-width="10"> <animate attributeName="visibility" dur="9.520000000000001s" keyTimes="0.0;0.0285714286;0.7142857143;0.7428571429;1.0" repeatCount="indefinite" values="visible;visible;visible;hidden;hidden"/> </circle>
<circle cx="850" cy="-3050" fill="none" r="35" stroke="#6e81af" stroke-width="10"> <animate attributeName="visibility" dur="9.520000000000001s" keyTimes="0.0;0.0285714286;0.7142857143;0.7428571429;1.0" repeatCount="indefinite" values="visible;visible;visible;hidden;hidden"/> </circle>
<circle cx="2750" cy="-2950" fill="none" r="35" stroke="#00b9c8" stroke-width="10"> <animate attributeName="visibility" dur="9.520000000000001s" keyTimes="0.0;0.0285714286;0.3142857143;0.3428571429;1.0" repeatCount="indefinite" values="visible;visible;visible;hidden;hidden"/> </circle>
<circle cx="1550" cy="-350" fill="none" r="35" stroke="#72D5C8" stroke-width="10"> <animate attributeName="visibility" dur="9.520000000000001s" keyTimes="0.0;0.0285714286;0.9428571429;0.9714285714;1.0" repeatCount="indefinite" values="visible;visible;visible;hidden;hidden"/> </circle>
<circle cx="1050" cy="-1950" fill="none" r="35" stroke="#0ea08c" stroke-width="10"> <animate attributeName="visibility" dur="9.520000000000001s" keyTimes="0.0;0.0285714286;0.3142857143;0.3428571429;1.0" repeatCount="indefinite" values="visible;visible;visible;hidden;hidden"/> </circle>
<circle cx="1650" cy="-1450" fill="none" r="35" stroke="#8F7B66" stroke-width="10"> <animate attributeName="visibility" dur="9.520000000000001s" keyTimes="0.0;0.0285714286;0.0857142857;0.1142857143;1.0" repeatCount="indefinite" values="visible;visible;visible;hidden;hidden"/> </circle>
<circle cx="1150" cy="-2850" fill="none" r="35" stroke="#c1433c" stroke-width="10"> <animate attributeName="visibility" dur="9.520000000000001s" keyTimes="0.0;0.0285714286;0.4571428571;0.4857142857;1.0" repeatCount="indefinite" values="visible;visible;visible;hidden;hidden"/> </circle>
<circle cx="2650" cy="-1150" fill="none" r="35" stroke="#2e6f9e" stroke-width="10"> <animate attributeName="visibility" dur="9.520000000000001s" keyTimes="0.0;0.0285714286;0.3428571429;0.3714285714;1.0" repeatCount="indefinite" values="visible;visible;visible;hidden;hidden"/> </circle>
<circle cx="1650" cy="-3150" fill="none" r="35" stroke="#6e81af" stroke-width="10"> <animate attributeName="visibility" dur="9.520000000000001s" keyTimes="0.0;0.0285714286;0.5428571429;0.5714285714;1.0" repeatCount="indefinite" values="visible;visible;visible;hidden;hidden"/> </circle>
</svg>