<?xml version="1.0" encoding="UTF-8"?>
        <svg xmlns="http://www.w3.org/2000/svg" xmlns:xlink="http://www.w3.org/1999/xlink"
             width="210" height="210" viewBox="0 -2100 2100 2100">

<defs>

</defs>

<rect fill="#84A1AE" height="70" rx="15" width="70" x="415" y="-485" />
<rect fill="#84A1AE" height="70" rx="15" width="70" x="415" y="-585" />
<rect fill="#84A1AE" height="70" rx="15" width="70" x="415" y="-685" />
<rect fill="#84A1AE" height="70" rx="15" width="70" x="415" y="-785" />
<rect fill="#84A1AE" height="70" rx="15" width="70" x="415" y="-885" />
<rect fill="#84A1AE" height="70" rx="15" width="70" x="415" y="-985" />
<rect fill="#84A1AE" height="70" rx="15" width="70" x="415" y="-1085" />
<rect fill="#84A1AE" height="70" rx="15" width="70" x="415" y="-1185" />
<rect fill="#84A1AE" height="70" rx="15" width="70" x="415" y="-1285" />
<rect fill="#84A1AE" height="70" rx="15" width="70" x="415" y="-1385" />
<rect fill="#84A1AE" height="70" rx="15" width="70" x="415" y="-1485" />
<rect fill="#84A1AE" height="70" rx="15" width="70" x="415" y="-1585" />
<rect fill="#84A1AE" height="70" rx="15" width="70" x="415" y="-1685" />
<rect fill="#84A1AE" height="70" rx="15" width="70" x="515" y="-485" />
<rect fill="#84A1AE" height="70" rx="15" width="70" x="515" y="-1085" />
<rect fill="#84A1AE" height="70" rx="15" width="70" x="515" y="-1685" />
<rect fill="#84A1AE" height="70" rx="15" width="70" x="615" y="-485" />
<rect fill="#84A1AE" height="70" rx="15" width="70" x="615" y="-1685" />
<rect fill="#84A1AE" height="70" rx="15" width="70" x="715" y="-485" />
<rect fill="#84A1AE" height="70" rx="15" width="70" x="715" y="-1085" />
<rect fill="#84A1AE" height="70" rx="15" width="70" x="715" y="-1685" />
<rect fill="#84A1AE" height="70" rx="15" width="70" x="815" y="-485" />
<rect fill="#84A1AE" height="70" rx="15" width="70" x="815" y="-1085" />
<rect fill="#84A1AE" height="70" rx="15" width="70" x="815" y="-1685" />
<rect fill="#84A1AE" height="70" rx="15" width="70" x="915" y="-485" />
<rect fill="#84A1AE" height="70" rx="15" width="70" x="915" y="-1085" />
<rect fill="#84A1AE" height="70" rx="15" width="70" x="915" y="-1685" />
<rect fill="#84A1AE" height="70" rx="15" width="70" x="1015" y="-485" />
<rect fill="#84A1AE" height="70" rx="15" width="70" x="1015" y="-585" />
<rect fill="#84A1AE" height="70" rx="15" width="70" x="1015" y="-785" />
<rect fill="#84A1AE" height="70" rx="15" width="70" x="1015" y="-885" />
<rect fill="#84A1AE" height="70" rx="15" width="70" x="1015" y="-985" />
<rect fill="#84A1AE" height="70" rx="15" width="70" x="1015" y="-1085" />
<rect fill="#84A1AE" height="70" rx="15" width="70" x="1015" y="-1185" />
<rect fill="#84A1AE" height="70" rx="15" width="70" x="1015" y="-1285" />
<rect fill="#84A1AE" height="70" rx="15" width="70" x="1015" y="-1485" />
<rect fill="#84A1AE" height="70" rx="15" width="70" x="1015" y="-1585" />
<rect fill="#84A1AE" height="70" rx="15" width="70" x="1015" y="-1685" />
<rect fill="#84A1AE" height="70" rx="15" width="70" x="1115" y="-485" />
<rect fill="#84A1AE" height="70" rx="15" width="70" x="1115" y="-985" />
<rect fill="#84A1AE" height="70" rx="15" width="70" x="1115" y="-1685" />
<rect fill="#84A1AE" height="70" rx="15" width="70" x="1215" y="-485" />
<rect fill="#84A1AE" height="70" rx="15" width="70" x="1215" y="-985" />
<rect fill="#84A1AE" height="70" rx="15" width="70" x="1215" y="-1685" />
<rect fill="#84A1AE" height="70" rx="15" width="70" x="1315" y="-485" />
<rect fill="#84A1AE" height="70" rx="15" width="70" x="1315" y="-1685" />
<rect fill="#84A1AE" height="70" rx="15" width="70" x="1415" y="-485" />
<rect fill="#84A1AE" height="70" rx="15" width="70" x="1415" y="-985" />
<rect fill="#84A1AE" height="70" rx="15" width="70" x="1415" y="-1685" />
<rect fill="#84A1AE" height="70" rx="15" width="70" x="1515" y="-485" />
<rect fill="#84A1AE" height="70" rx="15" width="70" x="1515" y="-985" />
<rect fill="#84A1AE" height="70" rx="15" width="70" x="1515" y="-1685" />
<rect fill="#84A1AE" height="70" rx="15" width="70" x="1615" y="-485" />
<rect fill="#84A1AE" height="70" rx="15" width="70" x="1615" y="-585" />
<rect fill="#84A1AE" height="70" rx="15" width="70" x="1615" y="-685" />
<rect fill="#84A1AE" height="70" rx="15" width="70" x="1615" y="-785" />
<rect fill="#84A1AE" height="70" rx="15" width="70" x="1615" y="-885" />
<rect fill="#84A1AE" height="70" rx="15" width="70" x="1615" y="-985" />
<rect fill="#84A1AE" height="70" rx="15" width="70" x="1615" y="-1085" />
<rect fill="#84A1AE" height="70" rx="15" width="70" x="1615" y="-1185" />
<rect fill="#84A1AE" height="70" rx="15" width="70" x="1615" y="-1285" />
<rect fill="#84A1AE" height="70" rx="15" width="70" x="1615" y="-1385" />
<rect fill="#84A1AE" height="70" rx="15" width="70" x="1615" y="-1485" />
<rect fill="#84A1AE" height="70" rx="15" width="70" x="1615" y="-1585" />
<rect fill="#84A1AE" height="70" rx="15" width="70" x="1615" y="-1685" />
<circle cx="1550" cy="-1350" fill="#c1433c" r="35"> <animate attributeName="cy" dur="1.4000000000000001s" keyTimes="0.0;0.1666666667;1.0" repeatCount="indefinite" values="-1350;-1350;-1350"/>
<animate attributeName="cx" dur="1.4000000000000001s" keyTimes="0.0;0.1666666667;1.0" repeatCount="indefinite" values="1550;1550;1550"/>
<animate attributeName="visibility" dur="1.4000000000000001s" keyTimes="0.0;0.1666666667;1.0" repeatCount="indefinite" values="visible;visible;visible"/> </circle>
<circle cx="850" cy="-950" fill="#2e6f9e" r="35"> <animate attributeName="cy" dur="1.4000000000000001s" keyTimes="0.0;0.1666666667;1.0" repeatCount="indefinite" values="-950;-950;-950"/>
<animate attributeName="cx" dur="1.4000000000000001s" keyTimes="0.0;0.1666666667;0.3333333333;1.0" repeatCount="indefinite" values="850;850;950;950"/>
<animate attributeName="visibility" dur="1.4000000000000001s" keyTimes="0.0;0.1666666667;1.0" repeatCount="indefinite" values="visible;visible;visible"/> </circle>
<circle cx="1150" cy="-850" fill="#6e81af" r="35"> <animate attributeName="cy" dur="1.4000000000000001s" keyTimes="0.0;0.1666666667;1.0" repeatCount="indefinite" values="-850;-850;-850"/>
<animate attributeName="cx" dur="1.4000000000000001s" keyTimes="0.0;0.1666666667;0.3333333333;0.5;0.6666666667;0.8333333333;1.0" repeatCount="indefinite" values="1150;1150;1250;1350;1450;1550;1550"/>
<animate attributeName="visibility" dur="1.4000000000000001s" keyTimes="0.0;0.1666666667;1.0" repeatCount="indefinite" values="visible;visible;visible"/> </circle>
<circle cx="1550" cy="-750" fill="#00b9c8" r="35"> <animate attributeName="cy" dur="1.4000000000000001s" keyTimes="0.0;0.1666666667;1.0" repeatCount="indefinite" values="-750;-750;-750"/>
<animate attributeName="cx" dur="1.4000000000000001s" keyTimes="0.0;0.1666666667;1.0" repeatCount="indefinite" values="1550;1550;1550"/>
<animate attributeName="visibility" dur="1.4000000000000001s" keyTimes="0.0;0.1666666667;1.0" repeatCount="indefinite" values="visible;visible;visible"/> </circle>
<circle cx="1150" cy="-1350" fill="#72D5C8" r="35"> <animate attributeName="cy" dur="1.4000000000000001s" keyTimes="0.0;0.1666666667;1.0" repeatCount="indefinite" values="-1350;-1350;-1350"/>
<animate attributeName="cx" dur="1.4000000000000001s" keyTimes="0.0;0.1666666667;0.3333333333;0.5;0.6666666667;1.0" repeatCount="indefinite" values="1150;1150;1250;1350;1450;1450"/>
<animate attributeName="visibility" dur="1.4000000000000001s" keyTimes="0.0;0.1666666667;1.0" repeatCount="indefinite" values="visible;visible;visible"/> </circle>
<circle cx="750" cy="-750" fill="#0ea08c" r="35"> <animate attributeName="cy" dur="1.4000000000000001s" keyTimes="0.0;0.1666666667;1.0" repeatCount="indefinite" values="-750;-750;-750"/>
<animate attributeName="cx" dur="1.4000000000000001s" keyTimes="0.0;0.1666666667;0.3333333333;0.5;1.0" repeatCount="indefinite" values="750;750;850;950;950"/>
<animate attributeName="visibility" dur="1.4000000000000001s" keyTimes="0.0;0.1666666667;1.0" repeatCount="indefinite" values="visible;visible;visible"/> </circle>
<circle cx="1150" cy="-750" fill="#8F7B66" r="35"> <animate attributeName="cy" dur="1.4000000000000001s" keyTimes="0.0;0.1666666667;1.0" repeatCount="indefinite" values="-750;-750;-750"/>
<animate attributeName="cx" dur="1.4000000000000001s" keyTimes="0.0;0.1666666667;0.3333333333;0.5;1.0" repeatCount="indefinite" values="1150;1150;1250;1350;1350"/>
<animate attributeName="visibility" dur="1.4000000000000001s" keyTimes="0.0;0.1666666667;1.0" repeatCount="indefinite" values="visible;visible;visible"/> </circle>
<circle cx="1450" cy="-750" fill="#c1433c" r="35"> <animate attributeName="cy" dur="1.4000000000000001s" keyTimes="0.0;0.1666666667;1.0" repeatCount="indefinite" values="-750;-750;-750"/>
<animate attributeName="cx" dur="1.4000000000000001s" keyTimes="0.0;0.1666666667;1.0" repeatCount="indefinite" values="1450;1450;1450"/>
<animate attributeName="visibility" dur="1.4000000000000001s" keyTimes="0.0;0.1666666667;1.0" repeatCount="indefinite" values="visible;visible;visible"/> </circle>
<circle cx="1250" cy="-650" fill="none" r="35" stroke="#c1433c" stroke-width="10"> <animate attributeName="visibility" dur="1.4000000000000001s" keyTimes="0.0;0.1666666667;1.0" repeatCount="indefinite" values="visible;visible;visible"/> </circle>
<circle cx="550" cy="-1250" fill="none" r="35" stroke="#2e6f9e" stroke-width="10"> <animate attributeName="visibility" dur="1.4000000000000001s" keyTimes="0.0;0.1666666667;1.0" repeatCount="indefinite" values="visible;visible;visible"/> </circle>
<circle cx="950" cy="-1550" fill="none" r="35" stroke="#6e81af" stroke-width="10"> <animate attributeName="visibility" dur="1.4000000000000001s" keyTimes="0.0;0.1666666667;1.0" repeatCount="indefinite" values="visible;visible;visible"/> </circle>
<circle cx="650" cy="-1150" fill="none" r="35" stroke="#00b9c8" stroke-width="10"> <animate attributeName="visibility" dur="1.4000000000000001s" keyTimes="0.0;0.1666666667;1.0" repeatCount="indefinite" values="visible;visible;visible"/> </circle>
<circle cx="650" cy="-750" fill="none" r="35" stroke="#72D5C8" stroke-width="10"> <animate attributeName="visibility" dur="1.4000000000000001s" keyTimes="0.0;0.1666666667;1.0" repeatCount="indefinite" values="visible;visible;visible"/> </circle>
<circle cx="1350" cy="-1350" fill="none" r="35" stroke="#0ea08c" stroke-width="10"> <animate attributeName="visibility" dur="1.4000000000000001s" keyTimes="0.0;0.1666666667;1.0" repeatCount="indefinite" values="visible;visible;visible"/> </circle>
<circle cx="1250" cy="-1150" fill="none" r="35" stroke="#8F7B66" stroke-width="10"> <animate attributeName="visibility" dur="1.4000000000000001s" keyTimes="0.0;0.1666666667;1.0" repeatCount="indefinite" values="visible;visible;visible"/> </circle>
<circle cx="750" cy="-850" fill="none" r="35" stroke="#c1433c" stroke-width="10"> <animate attributeName="visibility" dur="1.4000000000000001s" keyTimes="0.0;0.1666666667;1.0" repeatCount="indefinite" values="visible;visible;visible"/> </circle>
</svg>